<?xml version="1.0" encoding="UTF-8"?>
<svg version="1.1" viewBox="0 0 800 800" xmlns="http://www.w3.org/2000/svg">
<g fill="hsla(0, 0%, 0%, 0.47)" stroke-width="1.5">
<circle r="1.7632"/>
<circle cx="44.444" r="1.7632"/>
<circle cx="88.889" r="1.7632"/>
<circle cx="133.33" r="1.7632"/>
<circle cx="177.78" r="1.7632"/>
<circle cx="222.22" r="1.7632"/>
<circle cx="266.67" r="1.7632"/>
<circle cx="311.11" r="1.7632"/>
<circle cx="355.56" r="1.7632"/>
<circle cx="400" r="1.7632"/>
<circle cx="444.44" r="1.7632"/>
<circle cx="488.89" r="1.7632"/>
<circle cx="533.33" r="1.7632"/>
<circle cx="577.78" r="1.7632"/>
<circle cx="622.22" r="1.7632"/>
<circle cx="666.67" r="1.7632"/>
<circle cx="711.11" r="1.7632"/>
<circle cx="755.56" r="1.7632"/>
<circle cx="800" r="1.7632"/>
<circle cy="44.444" r="1.7632"/>
<circle cx="44.444" cy="44.444" r="1.7632"/>
<circle cx="88.889" cy="44.444" r="1.7632"/>
<circle cx="133.33" cy="44.444" r="1.7632"/>
<circle cx="177.78" cy="44.444" r="1.7632"/>
<circle cx="222.22" cy="44.444" r="1.7632"/>
<circle cx="266.67" cy="44.444" r="1.7632"/>
<circle cx="311.11" cy="44.444" r="1.7632"/>
<circle cx="355.56" cy="44.444" r="1.7632"/>
<circle cx="400" cy="44.444" r="1.7632"/>
<circle cx="444.44" cy="44.444" r="1.7632"/>
<circle cx="488.89" cy="44.444" r="1.7632"/>
<circle cx="533.33" cy="44.444" r="1.7632"/>
<circle cx="577.78" cy="44.444" r="1.7632"/>
<circle cx="622.22" cy="44.444" r="1.7632"/>
<circle cx="666.67" cy="44.444" r="1.7632"/>
<circle cx="711.11" cy="44.444" r="1.7632"/>
<circle cx="755.56" cy="44.444" r="1.7632"/>
<circle cx="800" cy="44.444" r="1.7632"/>
<circle cy="88.889" r="1.7632"/>
<circle cx="44.444" cy="88.889" r="1.7632"/>
<circle cx="88.889" cy="88.889" r="1.7632"/>
<circle cx="133.33" cy="88.889" r="1.7632"/>
<circle cx="177.78" cy="88.889" r="1.7632"/>
<circle cx="222.22" cy="88.889" r="1.7632"/>
<circle cx="266.67" cy="88.889" r="1.7632"/>
<circle cx="311.11" cy="88.889" r="1.7632"/>
<circle cx="355.56" cy="88.889" r="1.7632"/>
<circle cx="400" cy="88.889" r="1.7632"/>
<circle cx="444.44" cy="88.889" r="1.7632"/>
<circle cx="488.89" cy="88.889" r="1.7632"/>
<circle cx="533.33" cy="88.889" r="1.7632"/>
<circle cx="577.78" cy="88.889" r="1.7632"/>
<circle cx="622.22" cy="88.889" r="1.7632"/>
<circle cx="666.67" cy="88.889" r="1.7632"/>
<circle cx="711.11" cy="88.889" r="1.7632"/>
<circle cx="755.56" cy="88.889" r="1.7632"/>
<circle cx="800" cy="88.889" r="1.7632"/>
<circle cy="133.33" r="1.7632"/>
<circle cx="44.444" cy="133.33" r="1.7632"/>
<circle cx="88.889" cy="133.33" r="1.7632"/>
<circle cx="133.33" cy="133.33" r="1.7632"/>
<circle cx="177.78" cy="133.33" r="1.7632"/>
<circle cx="222.22" cy="133.33" r="1.7632"/>
<circle cx="266.67" cy="133.33" r="1.7632"/>
<circle cx="311.11" cy="133.33" r="1.7632"/>
<circle cx="355.56" cy="133.33" r="1.7632"/>
<circle cx="400" cy="133.33" r="1.7632"/>
<circle cx="444.44" cy="133.33" r="1.7632"/>
<circle cx="488.89" cy="133.33" r="1.7632"/>
<circle cx="533.33" cy="133.33" r="1.7632"/>
<circle cx="577.78" cy="133.33" r="1.7632"/>
<circle cx="622.22" cy="133.33" r="1.7632"/>
<circle cx="666.67" cy="133.33" r="1.7632"/>
<circle cx="711.11" cy="133.33" r="1.7632"/>
<circle cx="755.56" cy="133.33" r="1.7632"/>
<circle cx="800" cy="133.33" r="1.7632"/>
<circle cy="177.78" r="1.7632"/>
<circle cx="44.444" cy="177.78" r="1.7632"/>
<circle cx="88.889" cy="177.78" r="1.7632"/>
<circle cx="133.33" cy="177.78" r="1.7632"/>
<circle cx="177.78" cy="177.78" r="1.7632"/>
<circle cx="222.22" cy="177.78" r="1.7632"/>
<circle cx="266.67" cy="177.78" r="1.7632"/>
<circle cx="311.11" cy="177.78" r="1.7632"/>
<circle cx="355.56" cy="177.78" r="1.7632"/>
<circle cx="400" cy="177.78" r="1.7632"/>
<circle cx="444.44" cy="177.78" r="1.7632"/>
<circle cx="488.89" cy="177.78" r="1.7632"/>
<circle cx="533.33" cy="177.78" r="1.7632"/>
<circle cx="577.78" cy="177.78" r="1.7632"/>
<circle cx="622.22" cy="177.78" r="1.7632"/>
<circle cx="666.67" cy="177.78" r="1.7632"/>
<circle cx="711.11" cy="177.78" r="1.7632"/>
<circle cx="755.56" cy="177.78" r="1.7632"/>
<circle cx="800" cy="177.78" r="1.7632"/>
<circle cy="222.22" r="1.7632"/>
<circle cx="44.444" cy="222.22" r="1.7632"/>
<circle cx="88.889" cy="222.22" r="1.7632"/>
<circle cx="133.33" cy="222.22" r="1.7632"/>
<circle cx="177.78" cy="222.22" r="1.7632"/>
<circle cx="222.22" cy="222.22" r="1.7632"/>
<circle cx="266.67" cy="222.22" r="1.7632"/>
<circle cx="311.11" cy="222.22" r="1.7632"/>
<circle cx="355.56" cy="222.22" r="1.7632"/>
<circle cx="400" cy="222.22" r="1.7632"/>
<circle cx="444.44" cy="222.22" r="1.7632"/>
<circle cx="488.89" cy="222.22" r="1.7632"/>
<circle cx="533.33" cy="222.22" r="1.7632"/>
<circle cx="577.78" cy="222.22" r="1.7632"/>
<circle cx="622.22" cy="222.22" r="1.7632"/>
<circle cx="666.67" cy="222.22" r="1.7632"/>
<circle cx="711.11" cy="222.22" r="1.7632"/>
<circle cx="755.56" cy="222.22" r="1.7632"/>
<circle cx="800" cy="222.22" r="1.7632"/>
<circle cy="266.67" r="1.7632"/>
<circle cx="44.444" cy="266.67" r="1.7632"/>
<circle cx="88.889" cy="266.67" r="1.7632"/>
<circle cx="133.33" cy="266.67" r="1.7632"/>
<circle cx="177.78" cy="266.67" r="1.7632"/>
<circle cx="222.22" cy="266.67" r="1.7632"/>
<circle cx="266.67" cy="266.67" r="1.7632"/>
<circle cx="311.11" cy="266.67" r="1.7632"/>
<circle cx="355.56" cy="266.67" r="1.7632"/>
<circle cx="400" cy="266.67" r="1.7632"/>
<circle cx="444.44" cy="266.67" r="1.7632"/>
<circle cx="488.89" cy="266.67" r="1.7632"/>
<circle cx="533.33" cy="266.67" r="1.7632"/>
<circle cx="577.78" cy="266.67" r="1.7632"/>
<circle cx="622.22" cy="266.67" r="1.7632"/>
<circle cx="666.67" cy="266.67" r="1.7632"/>
<circle cx="711.11" cy="266.67" r="1.7632"/>
<circle cx="755.56" cy="266.67" r="1.7632"/>
<circle cx="800" cy="266.67" r="1.7632"/>
<circle cy="311.11" r="1.7632"/>
<circle cx="44.444" cy="311.11" r="1.7632"/>
<circle cx="88.889" cy="311.11" r="1.7632"/>
<circle cx="133.33" cy="311.11" r="1.7632"/>
<circle cx="177.78" cy="311.11" r="1.7632"/>
<circle cx="222.22" cy="311.11" r="1.7632"/>
<circle cx="266.67" cy="311.11" r="1.7632"/>
<circle cx="311.11" cy="311.11" r="1.7632"/>
<circle cx="355.56" cy="311.11" r="1.7632"/>
<circle cx="400" cy="311.11" r="1.7632"/>
<circle cx="444.44" cy="311.11" r="1.7632"/>
<circle cx="488.89" cy="311.11" r="1.7632"/>
<circle cx="533.33" cy="311.11" r="1.7632"/>
<circle cx="577.78" cy="311.11" r="1.7632"/>
<circle cx="622.22" cy="311.11" r="1.7632"/>
<circle cx="666.67" cy="311.11" r="1.7632"/>
<circle cx="711.11" cy="311.11" r="1.7632"/>
<circle cx="755.56" cy="311.11" r="1.7632"/>
<circle cx="800" cy="311.11" r="1.7632"/>
<circle cy="355.56" r="1.7632"/>
<circle cx="44.444" cy="355.56" r="1.7632"/>
<circle cx="88.889" cy="355.56" r="1.7632"/>
<circle cx="133.33" cy="355.56" r="1.7632"/>
<circle cx="177.78" cy="355.56" r="1.7632"/>
<circle cx="222.22" cy="355.56" r="1.7632"/>
<circle cx="266.67" cy="355.56" r="1.7632"/>
<circle cx="311.11" cy="355.56" r="1.7632"/>
<circle cx="355.56" cy="355.56" r="1.7632"/>
<circle cx="400" cy="355.56" r="1.7632"/>
<circle cx="444.44" cy="355.56" r="1.7632"/>
<circle cx="488.89" cy="355.56" r="1.7632"/>
<circle cx="533.33" cy="355.56" r="1.7632"/>
<circle cx="577.78" cy="355.56" r="1.7632"/>
<circle cx="622.22" cy="355.56" r="1.7632"/>
<circle cx="666.67" cy="355.56" r="1.7632"/>
<circle cx="711.11" cy="355.56" r="1.7632"/>
<circle cx="755.56" cy="355.56" r="1.7632"/>
<circle cx="800" cy="355.56" r="1.7632"/>
<circle cy="400" r="1.7632"/>
<circle cx="44.444" cy="400" r="1.7632"/>
<circle cx="88.889" cy="400" r="1.7632"/>
<circle cx="133.33" cy="400" r="1.7632"/>
<circle cx="177.78" cy="400" r="1.7632"/>
<circle cx="222.22" cy="400" r="1.7632"/>
<circle cx="266.67" cy="400" r="1.7632"/>
<circle cx="311.11" cy="400" r="1.7632"/>
<circle cx="355.56" cy="400" r="1.7632"/>
<circle cx="400" cy="400" r="1.7632"/>
<circle cx="444.44" cy="400" r="1.7632"/>
<circle cx="488.89" cy="400" r="1.7632"/>
<circle cx="533.33" cy="400" r="1.7632"/>
<circle cx="577.78" cy="400" r="1.7632"/>
<circle cx="622.22" cy="400" r="1.7632"/>
<circle cx="666.67" cy="400" r="1.7632"/>
<circle cx="711.11" cy="400" r="1.7632"/>
<circle cx="755.56" cy="400" r="1.7632"/>
<circle cx="800" cy="400" r="1.7632"/>
<circle cy="444.44" r="1.7632"/>
<circle cx="44.444" cy="444.44" r="1.7632"/>
<circle cx="88.889" cy="444.44" r="1.7632"/>
<circle cx="133.33" cy="444.44" r="1.7632"/>
<circle cx="177.78" cy="444.44" r="1.7632"/>
<circle cx="222.22" cy="444.44" r="1.7632"/>
<circle cx="266.67" cy="444.44" r="1.7632"/>
<circle cx="311.11" cy="444.44" r="1.7632"/>
<circle cx="355.56" cy="444.44" r="1.7632"/>
<circle cx="400" cy="444.44" r="1.7632"/>
<circle cx="444.44" cy="444.44" r="1.7632"/>
<circle cx="488.89" cy="444.44" r="1.7632"/>
<circle cx="533.33" cy="444.44" r="1.7632"/>
<circle cx="577.78" cy="444.44" r="1.7632"/>
<circle cx="622.22" cy="444.44" r="1.7632"/>
<circle cx="666.67" cy="444.44" r="1.7632"/>
<circle cx="711.11" cy="444.44" r="1.7632"/>
<circle cx="755.56" cy="444.44" r="1.7632"/>
<circle cx="800" cy="444.44" r="1.7632"/>
<circle cy="488.89" r="1.7632"/>
<circle cx="44.444" cy="488.89" r="1.7632"/>
<circle cx="88.889" cy="488.89" r="1.7632"/>
<circle cx="133.33" cy="488.89" r="1.7632"/>
<circle cx="177.78" cy="488.89" r="1.7632"/>
<circle cx="222.22" cy="488.89" r="1.7632"/>
<circle cx="266.67" cy="488.89" r="1.7632"/>
<circle cx="311.11" cy="488.89" r="1.7632"/>
<circle cx="355.56" cy="488.89" r="1.7632"/>
<circle cx="400" cy="488.89" r="1.7632"/>
<circle cx="444.44" cy="488.89" r="1.7632"/>
<circle cx="488.89" cy="488.89" r="1.7632"/>
<circle cx="533.33" cy="488.89" r="1.7632"/>
<circle cx="577.78" cy="488.89" r="1.7632"/>
<circle cx="622.22" cy="488.89" r="1.7632"/>
<circle cx="666.67" cy="488.89" r="1.7632"/>
<circle cx="711.11" cy="488.89" r="1.7632"/>
<circle cx="755.56" cy="488.89" r="1.7632"/>
<circle cx="800" cy="488.89" r="1.7632"/>
<circle cy="533.33" r="1.7632"/>
<circle cx="44.444" cy="533.33" r="1.7632"/>
<circle cx="88.889" cy="533.33" r="1.7632"/>
<circle cx="133.33" cy="533.33" r="1.7632"/>
<circle cx="177.78" cy="533.33" r="1.7632"/>
<circle cx="222.22" cy="533.33" r="1.7632"/>
<circle cx="266.67" cy="533.33" r="1.7632"/>
<circle cx="311.11" cy="533.33" r="1.7632"/>
<circle cx="355.56" cy="533.33" r="1.7632"/>
<circle cx="400" cy="533.33" r="1.7632"/>
<circle cx="444.44" cy="533.33" r="1.7632"/>
<circle cx="488.89" cy="533.33" r="1.7632"/>
<circle cx="533.33" cy="533.33" r="1.7632"/>
<circle cx="577.78" cy="533.33" r="1.7632"/>
<circle cx="622.22" cy="533.33" r="1.7632"/>
<circle cx="666.67" cy="533.33" r="1.7632"/>
<circle cx="711.11" cy="533.33" r="1.7632"/>
<circle cx="755.56" cy="533.33" r="1.7632"/>
<circle cx="800" cy="533.33" r="1.7632"/>
<circle cy="577.78" r="1.7632"/>
<circle cx="44.444" cy="577.78" r="1.7632"/>
<circle cx="88.889" cy="577.78" r="1.7632"/>
<circle cx="133.33" cy="577.78" r="1.7632"/>
<circle cx="177.78" cy="577.78" r="1.7632"/>
<circle cx="222.22" cy="577.78" r="1.7632"/>
<circle cx="266.67" cy="577.78" r="1.7632"/>
<circle cx="311.11" cy="577.78" r="1.7632"/>
<circle cx="355.56" cy="577.78" r="1.7632"/>
<circle cx="400" cy="577.78" r="1.7632"/>
<circle cx="444.44" cy="577.78" r="1.7632"/>
<circle cx="488.89" cy="577.78" r="1.7632"/>
<circle cx="533.33" cy="577.78" r="1.7632"/>
<circle cx="577.78" cy="577.78" r="1.7632"/>
<circle cx="622.22" cy="577.78" r="1.7632"/>
<circle cx="666.67" cy="577.78" r="1.7632"/>
<circle cx="711.11" cy="577.78" r="1.7632"/>
<circle cx="755.56" cy="577.78" r="1.7632"/>
<circle cx="800" cy="577.78" r="1.7632"/>
<circle cy="622.22" r="1.7632"/>
<circle cx="44.444" cy="622.22" r="1.7632"/>
<circle cx="88.889" cy="622.22" r="1.7632"/>
<circle cx="133.33" cy="622.22" r="1.7632"/>
<circle cx="177.78" cy="622.22" r="1.7632"/>
<circle cx="222.22" cy="622.22" r="1.7632"/>
<circle cx="266.67" cy="622.22" r="1.7632"/>
<circle cx="311.11" cy="622.22" r="1.7632"/>
<circle cx="355.56" cy="622.22" r="1.7632"/>
<circle cx="400" cy="622.22" r="1.7632"/>
<circle cx="444.44" cy="622.22" r="1.7632"/>
<circle cx="488.89" cy="622.22" r="1.7632"/>
<circle cx="533.33" cy="622.22" r="1.7632"/>
<circle cx="577.78" cy="622.22" r="1.7632"/>
<circle cx="622.22" cy="622.22" r="1.7632"/>
<circle cx="666.67" cy="622.22" r="1.7632"/>
<circle cx="711.11" cy="622.22" r="1.7632"/>
<circle cx="755.56" cy="622.22" r="1.7632"/>
<circle cx="800" cy="622.22" r="1.7632"/>
<circle cy="666.67" r="1.7632"/>
<circle cx="44.444" cy="666.67" r="1.7632"/>
<circle cx="88.889" cy="666.67" r="1.7632"/>
<circle cx="133.33" cy="666.67" r="1.7632"/>
<circle cx="177.78" cy="666.67" r="1.7632"/>
<circle cx="222.22" cy="666.67" r="1.7632"/>
<circle cx="266.67" cy="666.67" r="1.7632"/>
<circle cx="311.11" cy="666.67" r="1.7632"/>
<circle cx="355.56" cy="666.67" r="1.7632"/>
<circle cx="400" cy="666.67" r="1.7632"/>
<circle cx="444.44" cy="666.67" r="1.7632"/>
<circle cx="488.89" cy="666.67" r="1.7632"/>
<circle cx="533.33" cy="666.67" r="1.7632"/>
<circle cx="577.78" cy="666.67" r="1.7632"/>
<circle cx="622.22" cy="666.67" r="1.7632"/>
<circle cx="666.67" cy="666.67" r="1.7632"/>
<circle cx="711.11" cy="666.67" r="1.7632"/>
<circle cx="755.56" cy="666.67" r="1.7632"/>
<circle cx="800" cy="666.67" r="1.7632"/>
<circle cy="711.11" r="1.7632"/>
<circle cx="44.444" cy="711.11" r="1.7632"/>
<circle cx="88.889" cy="711.11" r="1.7632"/>
<circle cx="133.33" cy="711.11" r="1.7632"/>
<circle cx="177.78" cy="711.11" r="1.7632"/>
<circle cx="222.22" cy="711.11" r="1.7632"/>
<circle cx="266.67" cy="711.11" r="1.7632"/>
<circle cx="311.11" cy="711.11" r="1.7632"/>
<circle cx="355.56" cy="711.11" r="1.7632"/>
<circle cx="400" cy="711.11" r="1.7632"/>
<circle cx="444.44" cy="711.11" r="1.7632"/>
<circle cx="488.89" cy="711.11" r="1.7632"/>
<circle cx="533.33" cy="711.11" r="1.7632"/>
<circle cx="577.78" cy="711.11" r="1.7632"/>
<circle cx="622.22" cy="711.11" r="1.7632"/>
<circle cx="666.67" cy="711.11" r="1.7632"/>
<circle cx="711.11" cy="711.11" r="1.7632"/>
<circle cx="755.56" cy="711.11" r="1.7632"/>
<circle cx="800" cy="711.11" r="1.7632"/>
<circle cy="755.56" r="1.7632"/>
<circle cx="44.444" cy="755.56" r="1.7632"/>
<circle cx="88.889" cy="755.56" r="1.7632"/>
<circle cx="133.33" cy="755.56" r="1.7632"/>
<circle cx="177.78" cy="755.56" r="1.7632"/>
<circle cx="222.22" cy="755.56" r="1.7632"/>
<circle cx="266.67" cy="755.56" r="1.7632"/>
<circle cx="311.11" cy="755.56" r="1.7632"/>
<circle cx="355.56" cy="755.56" r="1.7632"/>
<circle cx="400" cy="755.56" r="1.7632"/>
<circle cx="444.44" cy="755.56" r="1.7632"/>
<circle cx="488.89" cy="755.56" r="1.7632"/>
<circle cx="533.33" cy="755.56" r="1.7632"/>
<circle cx="577.78" cy="755.56" r="1.7632"/>
<circle cx="622.22" cy="755.56" r="1.7632"/>
<circle cx="666.67" cy="755.56" r="1.7632"/>
<circle cx="711.11" cy="755.56" r="1.7632"/>
<circle cx="755.56" cy="755.56" r="1.7632"/>
<circle cx="800" cy="755.56" r="1.7632"/>
<circle cy="800" r="1.7632"/>
<circle cx="44.444" cy="800" r="1.7632"/>
<circle cx="88.889" cy="800" r="1.7632"/>
<circle cx="133.33" cy="800" r="1.7632"/>
<circle cx="177.78" cy="800" r="1.7632"/>
<circle cx="222.22" cy="800" r="1.7632"/>
<circle cx="266.67" cy="800" r="1.7632"/>
<circle cx="311.11" cy="800" r="1.7632"/>
<circle cx="355.56" cy="800" r="1.7632"/>
<circle cx="400" cy="800" r="1.7632"/>
<circle cx="444.44" cy="800" r="1.7632"/>
<circle cx="488.89" cy="800" r="1.7632"/>
<circle cx="533.33" cy="800" r="1.7632"/>
<circle cx="577.78" cy="800" r="1.7632"/>
<circle cx="622.22" cy="800" r="1.7632"/>
<circle cx="666.67" cy="800" r="1.7632"/>
<circle cx="711.11" cy="800" r="1.7632"/>
<circle cx="755.56" cy="800" r="1.7632"/>
<circle cx="800" cy="800" r="1.7632"/>
</g>
</svg>
