<?xml version="1.0" encoding="UTF-8"?>
<svg version="1.1" viewBox="0 0 800 800" xmlns="http://www.w3.org/2000/svg">
<g fill="none" stroke="hsla(0, 0%, 51%, 1.00)" stroke-width="2">
<circle cx="50%" r="412.5"/>
<circle cx="50%" r="400"/>
<circle cx="50%" r="387.5"/>
<circle cx="50%" r="375"/>
<circle cx="50%" r="362.5"/>
<circle cx="50%" r="350"/>
<circle cx="50%" r="337.5"/>
<circle cx="50%" r="325"/>
<circle cx="50%" r="312.5"/>
<circle cx="50%" r="300"/>
<circle cx="50%" r="287.5"/>
<circle cx="50%" r="275"/>
<circle cx="50%" r="262.5"/>
<circle cx="50%" r="250"/>
<circle cx="50%" r="237.5"/>
<circle cx="50%" r="225"/>
<circle cx="50%" r="212.5"/>
<circle cx="50%" r="200"/>
<circle cx="50%" r="187.5"/>
<circle cx="50%" r="175"/>
<circle cx="50%" r="162.5"/>
<circle cx="50%" r="150"/>
<circle cx="50%" r="137.5"/>
<circle cx="50%" r="125"/>
<circle cx="50%" r="112.5"/>
<circle cx="50%" r="100"/>
<circle cx="50%" r="87.5"/>
<circle cx="50%" r="75"/>
<circle cx="50%" r="62.5"/>
<circle cx="50%" r="50"/>
<circle cx="50%" r="37.5"/>
<circle cx="50%" r="25"/>
<circle cx="50%" r="12.5"/>
</g>
<g fill="none" stroke="hsla(0, 0%, 51%, 1.00)" stroke-width="2">
<circle cx="50%" cy="100%" r="412.5"/>
<circle cx="50%" cy="100%" r="400"/>
<circle cx="50%" cy="100%" r="387.5"/>
<circle cx="50%" cy="100%" r="375"/>
<circle cx="50%" cy="100%" r="362.5"/>
<circle cx="50%" cy="100%" r="350"/>
<circle cx="50%" cy="100%" r="337.5"/>
<circle cx="50%" cy="100%" r="325"/>
<circle cx="50%" cy="100%" r="312.5"/>
<circle cx="50%" cy="100%" r="300"/>
<circle cx="50%" cy="100%" r="287.5"/>
<circle cx="50%" cy="100%" r="275"/>
<circle cx="50%" cy="100%" r="262.5"/>
<circle cx="50%" cy="100%" r="250"/>
<circle cx="50%" cy="100%" r="237.5"/>
<circle cx="50%" cy="100%" r="225"/>
<circle cx="50%" cy="100%" r="212.5"/>
<circle cx="50%" cy="100%" r="200"/>
<circle cx="50%" cy="100%" r="187.5"/>
<circle cx="50%" cy="100%" r="175"/>
<circle cx="50%" cy="100%" r="162.5"/>
<circle cx="50%" cy="100%" r="150"/>
<circle cx="50%" cy="100%" r="137.5"/>
<circle cx="50%" cy="100%" r="125"/>
<circle cx="50%" cy="100%" r="112.5"/>
<circle cx="50%" cy="100%" r="100"/>
<circle cx="50%" cy="100%" r="87.5"/>
<circle cx="50%" cy="100%" r="75"/>
<circle cx="50%" cy="100%" r="62.5"/>
<circle cx="50%" cy="100%" r="50"/>
<circle cx="50%" cy="100%" r="37.5"/>
<circle cx="50%" cy="100%" r="25"/>
<circle cx="50%" cy="100%" r="12.5"/>
</g>
<g fill="none" stroke="hsla(0, 0%, 51%, 1.00)" stroke-width="2">
<circle cy="50%" r="412.5"/>
<circle cy="50%" r="400"/>
<circle cy="50%" r="387.5"/>
<circle cy="50%" r="375"/>
<circle cy="50%" r="362.5"/>
<circle cy="50%" r="350"/>
<circle cy="50%" r="337.5"/>
<circle cy="50%" r="325"/>
<circle cy="50%" r="312.5"/>
<circle cy="50%" r="300"/>
<circle cy="50%" r="287.5"/>
<circle cy="50%" r="275"/>
<circle cy="50%" r="262.5"/>
<circle cy="50%" r="250"/>
<circle cy="50%" r="237.5"/>
<circle cy="50%" r="225"/>
<circle cy="50%" r="212.5"/>
<circle cy="50%" r="200"/>
<circle cy="50%" r="187.5"/>
<circle cy="50%" r="175"/>
<circle cy="50%" r="162.5"/>
<circle cy="50%" r="150"/>
<circle cy="50%" r="137.5"/>
<circle cy="50%" r="125"/>
<circle cy="50%" r="112.5"/>
<circle cy="50%" r="100"/>
<circle cy="50%" r="87.5"/>
<circle cy="50%" r="75"/>
<circle cy="50%" r="62.5"/>
<circle cy="50%" r="50"/>
<circle cy="50%" r="37.5"/>
<circle cy="50%" r="25"/>
<circle cy="50%" r="12.5"/>
</g>
<g fill="none" stroke="hsla(0, 0%, 51%, 1.00)" stroke-width="2">
<circle cx="100%" cy="50%" r="412.5"/>
<circle cx="100%" cy="50%" r="400"/>
<circle cx="100%" cy="50%" r="387.5"/>
<circle cx="100%" cy="50%" r="375"/>
<circle cx="100%" cy="50%" r="362.5"/>
<circle cx="100%" cy="50%" r="350"/>
<circle cx="100%" cy="50%" r="337.5"/>
<circle cx="100%" cy="50%" r="325"/>
<circle cx="100%" cy="50%" r="312.5"/>
<circle cx="100%" cy="50%" r="300"/>
<circle cx="100%" cy="50%" r="287.5"/>
<circle cx="100%" cy="50%" r="275"/>
<circle cx="100%" cy="50%" r="262.5"/>
<circle cx="100%" cy="50%" r="250"/>
<circle cx="100%" cy="50%" r="237.5"/>
<circle cx="100%" cy="50%" r="225"/>
<circle cx="100%" cy="50%" r="212.5"/>
<circle cx="100%" cy="50%" r="200"/>
<circle cx="100%" cy="50%" r="187.5"/>
<circle cx="100%" cy="50%" r="175"/>
<circle cx="100%" cy="50%" r="162.5"/>
<circle cx="100%" cy="50%" r="150"/>
<circle cx="100%" cy="50%" r="137.5"/>
<circle cx="100%" cy="50%" r="125"/>
<circle cx="100%" cy="50%" r="112.5"/>
<circle cx="100%" cy="50%" r="100"/>
<circle cx="100%" cy="50%" r="87.5"/>
<circle cx="100%" cy="50%" r="75"/>
<circle cx="100%" cy="50%" r="62.5"/>
<circle cx="100%" cy="50%" r="50"/>
<circle cx="100%" cy="50%" r="37.5"/>
<circle cx="100%" cy="50%" r="25"/>
<circle cx="100%" cy="50%" r="12.5"/>
</g>
</svg>
