<?xml version="1.0" encoding="UTF-8"?>
<svg version="1.1" viewBox="0 0 1422 800" xmlns="http://www.w3.org/2000/svg">
<g fill="none" stroke="hsl(0, 0%, 43%)" stroke-linecap="square" stroke-width="3">
<line x1="86" y2="86" opacity=".05"/>
<line x1="86" x2="172" y2="86" opacity=".05"/>
<line x1="172" x2="258" y2="86" opacity=".05"/>
<line x1="258" x2="344" y2="86" opacity=".05"/>
<line x1="344" x2="430" y2="86" opacity=".05"/>
<line x1="430" x2="516" y2="86" opacity=".05"/>
<line x1="516" x2="602" y2="86" opacity=".05"/>
<line x1="602" x2="688" y2="86" opacity=".05"/>
<line x1="774" x2="688" y2="86" opacity=".05"/>
<line x1="774" x2="860" y2="86" opacity=".05"/>
<line x1="860" x2="946" y2="86" opacity=".05"/>
<line x1="946" x2="1032" y2="86" opacity=".05"/>
<line x1="1032" x2="1118" y2="86" opacity=".05"/>
<line x1="1118" x2="1204" y2="86" opacity=".05"/>
<line x1="1204" x2="1290" y2="86" opacity=".05"/>
<line x1="1290" x2="1376" y2="86" opacity=".05"/>
<line x1="1376" x2="1462" y2="86" opacity=".05"/>
<line x2="86" y1="86" y2="172" opacity=".15"/>
<line x1="86" x2="172" y1="86" y2="172" opacity=".15"/>
<line x1="172" x2="258" y1="86" y2="172" opacity=".15"/>
<line x1="258" x2="344" y1="86" y2="172" opacity=".15"/>
<line x1="344" x2="430" y1="86" y2="172" opacity=".15"/>
<line x1="430" x2="516" y1="86" y2="172" opacity=".15"/>
<line x1="516" x2="602" y1="86" y2="172" opacity=".15"/>
<line x1="602" x2="688" y1="86" y2="172" opacity=".15"/>
<line x1="688" x2="774" y1="86" y2="172" opacity=".15"/>
<line x1="774" x2="860" y1="86" y2="172" opacity=".15"/>
<line x1="860" x2="946" y1="86" y2="172" opacity=".15"/>
<line x1="946" x2="1032" y1="86" y2="172" opacity=".15"/>
<line x1="1032" x2="1118" y1="86" y2="172" opacity=".15"/>
<line x1="1118" x2="1204" y1="86" y2="172" opacity=".15"/>
<line x1="1204" x2="1290" y1="86" y2="172" opacity=".15"/>
<line x1="1290" x2="1376" y1="86" y2="172" opacity=".15"/>
<line x1="1376" x2="1462" y1="86" y2="172" opacity=".15"/>
<line x2="86" y1="172" y2="258" opacity=".25"/>
<line x1="86" x2="172" y1="172" y2="258" opacity=".25"/>
<line x1="172" x2="258" y1="172" y2="258" opacity=".25"/>
<line x1="258" x2="344" y1="172" y2="258" opacity=".25"/>
<line x1="344" x2="430" y1="172" y2="258" opacity=".25"/>
<line x1="430" x2="516" y1="172" y2="258" opacity=".25"/>
<line x1="602" x2="516" y1="172" y2="258" opacity=".25"/>
<line x1="602" x2="688" y1="172" y2="258" opacity=".25"/>
<line x1="688" x2="774" y1="172" y2="258" opacity=".25"/>
<line x1="774" x2="860" y1="172" y2="258" opacity=".25"/>
<line x1="860" x2="946" y1="172" y2="258" opacity=".25"/>
<line x1="946" x2="1032" y1="172" y2="258" opacity=".25"/>
<line x1="1118" x2="1032" y1="172" y2="258" opacity=".25"/>
<line x1="1118" x2="1204" y1="172" y2="258" opacity=".25"/>
<line x1="1204" x2="1290" y1="172" y2="258" opacity=".25"/>
<line x1="1290" x2="1376" y1="172" y2="258" opacity=".25"/>
<line x1="1376" x2="1462" y1="172" y2="258" opacity=".25"/>
<line x2="86" y1="258" y2="344" opacity=".36"/>
<line x1="86" x2="172" y1="258" y2="344" opacity=".36"/>
<line x1="258" x2="172" y1="258" y2="344" opacity=".36"/>
<line x1="258" x2="344" y1="258" y2="344" opacity=".36"/>
<line x1="344" x2="430" y1="258" y2="344" opacity=".36"/>
<line x1="516" x2="430" y1="258" y2="344" opacity=".36"/>
<line x1="602" x2="516" y1="258" y2="344" opacity=".36"/>
<line x1="602" x2="688" y1="258" y2="344" opacity=".36"/>
<line x1="688" x2="774" y1="258" y2="344" opacity=".36"/>
<line x1="774" x2="860" y1="258" y2="344" opacity=".36"/>
<line x1="860" x2="946" y1="258" y2="344" opacity=".36"/>
<line x1="946" x2="1032" y1="258" y2="344" opacity=".36"/>
<line x1="1032" x2="1118" y1="258" y2="344" opacity=".36"/>
<line x1="1118" x2="1204" y1="258" y2="344" opacity=".36"/>
<line x1="1204" x2="1290" y1="258" y2="344" opacity=".36"/>
<line x1="1290" x2="1376" y1="258" y2="344" opacity=".36"/>
<line x1="1376" x2="1462" y1="258" y2="344" opacity=".36"/>
<line x2="86" y1="344" y2="430" opacity=".46"/>
<line x1="86" x2="172" y1="344" y2="430" opacity=".46"/>
<line x1="258" x2="172" y1="344" y2="430" opacity=".46"/>
<line x1="258" x2="344" y1="344" y2="430" opacity=".46"/>
<line x1="344" x2="430" y1="344" y2="430" opacity=".46"/>
<line x1="430" x2="516" y1="344" y2="430" opacity=".46"/>
<line x1="602" x2="516" y1="344" y2="430" opacity=".46"/>
<line x1="602" x2="688" y1="344" y2="430" opacity=".46"/>
<line x1="688" x2="774" y1="344" y2="430" opacity=".46"/>
<line x1="774" x2="860" y1="344" y2="430" opacity=".46"/>
<line x1="860" x2="946" y1="344" y2="430" opacity=".46"/>
<line x1="946" x2="1032" y1="344" y2="430" opacity=".46"/>
<line x1="1032" x2="1118" y1="344" y2="430" opacity=".46"/>
<line x1="1118" x2="1204" y1="344" y2="430" opacity=".46"/>
<line x1="1204" x2="1290" y1="344" y2="430" opacity=".46"/>
<line x1="1290" x2="1376" y1="344" y2="430" opacity=".46"/>
<line x1="1462" x2="1376" y1="344" y2="430" opacity=".46"/>
<line x1="86" y1="430" y2="516" opacity=".56"/>
<line x1="86" x2="172" y1="430" y2="516" opacity=".56"/>
<line x1="172" x2="258" y1="430" y2="516" opacity=".56"/>
<line x1="344" x2="258" y1="430" y2="516" opacity=".56"/>
<line x1="344" x2="430" y1="430" y2="516" opacity=".56"/>
<line x1="516" x2="430" y1="430" y2="516" opacity=".56"/>
<line x1="602" x2="516" y1="430" y2="516" opacity=".56"/>
<line x1="602" x2="688" y1="430" y2="516" opacity=".56"/>
<line x1="688" x2="774" y1="430" y2="516" opacity=".56"/>
<line x1="774" x2="860" y1="430" y2="516" opacity=".56"/>
<line x1="860" x2="946" y1="430" y2="516" opacity=".56"/>
<line x1="1032" x2="946" y1="430" y2="516" opacity=".56"/>
<line x1="1032" x2="1118" y1="430" y2="516" opacity=".56"/>
<line x1="1118" x2="1204" y1="430" y2="516" opacity=".56"/>
<line x1="1204" x2="1290" y1="430" y2="516" opacity=".56"/>
<line x1="1290" x2="1376" y1="430" y2="516" opacity=".56"/>
<line x1="1462" x2="1376" y1="430" y2="516" opacity=".56"/>
<line x2="86" y1="516" y2="602" opacity=".66"/>
<line x1="86" x2="172" y1="516" y2="602" opacity=".66"/>
<line x1="172" x2="258" y1="516" y2="602" opacity=".66"/>
<line x1="258" x2="344" y1="516" y2="602" opacity=".66"/>
<line x1="430" x2="344" y1="516" y2="602" opacity=".66"/>
<line x1="430" x2="516" y1="516" y2="602" opacity=".66"/>
<line x1="602" x2="516" y1="516" y2="602" opacity=".66"/>
<line x1="602" x2="688" y1="516" y2="602" opacity=".66"/>
<line x1="688" x2="774" y1="516" y2="602" opacity=".66"/>
<line x1="860" x2="774" y1="516" y2="602" opacity=".66"/>
<line x1="946" x2="860" y1="516" y2="602" opacity=".66"/>
<line x1="946" x2="1032" y1="516" y2="602" opacity=".66"/>
<line x1="1032" x2="1118" y1="516" y2="602" opacity=".66"/>
<line x1="1204" x2="1118" y1="516" y2="602" opacity=".66"/>
<line x1="1204" x2="1290" y1="516" y2="602" opacity=".66"/>
<line x1="1376" x2="1290" y1="516" y2="602" opacity=".66"/>
<line x1="1376" x2="1462" y1="516" y2="602" opacity=".66"/>
<line x2="86" y1="602" y2="688" opacity=".76"/>
<line x1="86" x2="172" y1="602" y2="688" opacity=".76"/>
<line x1="258" x2="172" y1="602" y2="688" opacity=".76"/>
<line x1="258" x2="344" y1="602" y2="688" opacity=".76"/>
<line x1="344" x2="430" y1="602" y2="688" opacity=".76"/>
<line x1="430" x2="516" y1="602" y2="688" opacity=".76"/>
<line x1="516" x2="602" y1="602" y2="688" opacity=".76"/>
<line x1="602" x2="688" y1="602" y2="688" opacity=".76"/>
<line x1="688" x2="774" y1="602" y2="688" opacity=".76"/>
<line x1="774" x2="860" y1="602" y2="688" opacity=".76"/>
<line x1="860" x2="946" y1="602" y2="688" opacity=".76"/>
<line x1="946" x2="1032" y1="602" y2="688" opacity=".76"/>
<line x1="1032" x2="1118" y1="602" y2="688" opacity=".76"/>
<line x1="1118" x2="1204" y1="602" y2="688" opacity=".76"/>
<line x1="1204" x2="1290" y1="602" y2="688" opacity=".76"/>
<line x1="1376" x2="1290" y1="602" y2="688" opacity=".76"/>
<line x1="1376" x2="1462" y1="602" y2="688" opacity=".76"/>
<line x2="86" y1="688" y2="774" opacity=".87"/>
<line x1="172" x2="86" y1="688" y2="774" opacity=".87"/>
<line x1="172" x2="258" y1="688" y2="774" opacity=".87"/>
<line x1="258" x2="344" y1="688" y2="774" opacity=".87"/>
<line x1="344" x2="430" y1="688" y2="774" opacity=".87"/>
<line x1="430" x2="516" y1="688" y2="774" opacity=".87"/>
<line x1="602" x2="516" y1="688" y2="774" opacity=".87"/>
<line x1="602" x2="688" y1="688" y2="774" opacity=".87"/>
<line x1="688" x2="774" y1="688" y2="774" opacity=".87"/>
<line x1="860" x2="774" y1="688" y2="774" opacity=".87"/>
<line x1="860" x2="946" y1="688" y2="774" opacity=".87"/>
<line x1="946" x2="1032" y1="688" y2="774" opacity=".87"/>
<line x1="1032" x2="1118" y1="688" y2="774" opacity=".87"/>
<line x1="1118" x2="1204" y1="688" y2="774" opacity=".87"/>
<line x1="1290" x2="1204" y1="688" y2="774" opacity=".87"/>
<line x1="1290" x2="1376" y1="688" y2="774" opacity=".87"/>
<line x1="1376" x2="1462" y1="688" y2="774" opacity=".87"/>
<line x1="86" y1="774" y2="860" opacity=".97"/>
<line x1="86" x2="172" y1="774" y2="860" opacity=".97"/>
<line x1="172" x2="258" y1="774" y2="860" opacity=".97"/>
<line x1="344" x2="258" y1="774" y2="860" opacity=".97"/>
<line x1="344" x2="430" y1="774" y2="860" opacity=".97"/>
<line x1="430" x2="516" y1="774" y2="860" opacity=".97"/>
<line x1="516" x2="602" y1="774" y2="860" opacity=".97"/>
<line x1="602" x2="688" y1="774" y2="860" opacity=".97"/>
<line x1="774" x2="688" y1="774" y2="860" opacity=".97"/>
<line x1="860" x2="774" y1="774" y2="860" opacity=".97"/>
<line x1="860" x2="946" y1="774" y2="860" opacity=".97"/>
<line x1="946" x2="1032" y1="774" y2="860" opacity=".97"/>
<line x1="1032" x2="1118" y1="774" y2="860" opacity=".97"/>
<line x1="1118" x2="1204" y1="774" y2="860" opacity=".97"/>
<line x1="1204" x2="1290" y1="774" y2="860" opacity=".97"/>
<line x1="1290" x2="1376" y1="774" y2="860" opacity=".97"/>
<line x1="1376" x2="1462" y1="774" y2="860" opacity=".97"/>
</g>
</svg>
