<?xml version="1.0" encoding="UTF-8"?>
<svg version="1.1" viewBox="0 0 800 800" xmlns="http://www.w3.org/2000/svg">
<g fill="none" stroke="hsl(0, 0%, 40%)" stroke-width="5">
<path transform="rotate(42 400 400)" d="m400-0.10315 346.5 200.05v400.1l-346.5 200.05-346.5-200.05v-400.1l346.5-200.05z" opacity=".05"/>
<path transform="rotate(40 400 400)" d="m400 18.949 330 190.53v381.05l-330 190.53-330-190.53v-381.05l330-190.53z" opacity=".1"/>
<path transform="rotate(38 400 400)" d="m400 38.002 313.5 181v362l-313.5 181-313.5-181v-362l313.5-181z" opacity=".15"/>
<path transform="rotate(36 400 400)" d="m400 57.054 297 171.47v342.95l-297 171.47-297-171.47v-342.95l297-171.47z" opacity=".19"/>
<path transform="rotate(34 400 400)" d="m400 76.107 280.5 161.95v323.89l-280.5 161.95-280.5-161.95v-323.89l280.5-161.95z" opacity=".24"/>
<path transform="rotate(32 400 400)" d="m400 95.159 264 152.42v304.84l-264 152.42-264-152.42v-304.84l264-152.42z" opacity=".29"/>
<path transform="rotate(30 400 400)" d="m400 114.21 247.5 142.89v285.79l-247.5 142.89-247.5-142.89v-285.79l247.5-142.89z" opacity=".33"/>
<path transform="rotate(28 400 400)" d="m400 133.26 231 133.37v266.74l-231 133.37-231-133.37v-266.74l231-133.37z" opacity=".38"/>
<path transform="rotate(26 400 400)" d="m400 152.32 214.5 123.84v247.68l-214.5 123.84-214.5-123.84v-247.68l214.5-123.84z" opacity=".43"/>
<path transform="rotate(24 400 400)" d="m400 171.37 198 114.32v228.63l-198 114.32-198-114.32v-228.63l198-114.32z" opacity=".48"/>
<path transform="rotate(22 400 400)" d="m400 190.42 181.5 104.79v209.58l-181.5 104.79-181.5-104.79v-209.58l181.5-104.79z" opacity=".53"/>
<path transform="rotate(20 400 400)" d="m400 209.47 165 95.263v190.53l-165 95.263-165-95.263v-190.53l165-95.263z" opacity=".57"/>
<path transform="rotate(18 400 400)" d="m400 228.53 148.5 85.736v171.47l-148.5 85.736-148.5-85.736v-171.47l148.5-85.736z" opacity=".62"/>
<path transform="rotate(16 400 400)" d="m400 247.58 132 76.21v152.42l-132 76.21-132-76.21v-152.42l132-76.21z" opacity=".67"/>
<path transform="rotate(14 400 400)" d="m400 266.63 115.5 66.684v133.37l-115.5 66.684-115.5-66.684v-133.37l115.5-66.684z" opacity=".71"/>
<path transform="rotate(12 400 400)" d="m400 285.68 99 57.158v114.32l-99 57.158-99-57.158v-114.32l99-57.158z" opacity=".76"/>
<path transform="rotate(10 400 400)" d="m400 304.74 82.5 47.631v95.263l-82.5 47.631-82.5-47.631v-95.263l82.5-47.631z" opacity=".81"/>
<path transform="rotate(8 400 400)" d="m400 323.79 66 38.105v76.21l-66 38.105-66-38.105v-76.21l66-38.105z" opacity=".86"/>
<path transform="rotate(6 400 400)" d="m400 342.84 49.5 28.579v57.158l-49.5 28.579-49.5-28.579v-57.158l49.5-28.579z" opacity=".91"/>
<path transform="rotate(4 400 400)" d="m400 361.89 33 19.053v38.105l-33 19.053-33-19.053v-38.105l33-19.053z" opacity=".95"/>
<path transform="rotate(2 400 400)" d="m400 380.95 16.5 9.5263v19.053l-16.5 9.5263-16.5-9.5263v-19.053l16.5-9.5263z"/>
</g>
</svg>
