<?xml version="1.0" encoding="UTF-8"?>
<svg version="1.1" viewBox="0 0 800 800" xmlns="http://www.w3.org/2000/svg">
<g fill="hsl(0, 0%, 38%)">
<path transform="matrix(-.1619 .24002 -.24002 -.1619 646.89 668.37)" d="m370 637h50c28 0 50 22 50 50h-50c-28 0-50-22-50-50z" opacity=".44"/>
<path transform="matrix(.0041102 .23547 -.23547 .0041102 789.53 -54.182)" d="m713 101h50c28 0 50 22 50 50h-50c-28 0-50-22-50-50z" opacity=".36"/>
<path transform="matrix(.0041233 .23622 -.23622 .0041233 848.25 188)" d="m714 345h50c28 0 50 22 50 50h-50c-28 0-50-22-50-50z" opacity=".36"/>
<path transform="matrix(.0081713 .23399 -.23399 .0081713 887.38 352.9)" d="m718 512h50c28 0 50 22 50 50h-50c-28 0-50-22-50-50z" opacity=".36"/>
<path transform="matrix(-.28497 .16453 -.16453 -.28497 315 236.55)" d="m168 187h50c28 0 50 22 50 50h-50c-28 0-50-22-50-50z" opacity=".5"/>
<path transform="matrix(-.13162 .24755 -.24755 -.13162 683.82 589.15)" d="m418 598h50c28 0 50 22 50 50h-50c-28 0-50-22-50-50z" opacity=".43"/>
<path transform="matrix(-.3712 .012962 -.012962 -.3712 49.623 752.38)" d="m-19 524h50c28 0 50 22 50 50h-50c-28 0-50-22-50-50z" opacity=".57"/>
<path transform="matrix(-.016948 .24237 -.24237 -.016948 842.68 338.67)" d="m659 477h50c28 0 50 22 50 50h-50c-28 0-50-22-50-50z" opacity=".37"/>
<path transform="matrix(-.14129 .24473 -.24473 -.14129 536.74 -74.506)" d="m413 9h50c28 0 50 22 50 50h-50c-28 0-50-22-50-50z" opacity=".43"/>
<path transform="matrix(-.18211 .2331 -.2331 -.18211 539.76 327.08)" d="m337 328h50c28 0 50 22 50 50h-50c-28 0-50-22-50-50z" opacity=".45"/>
<path transform="matrix(-.21221 .21975 -.21975 -.21221 591.71 860.56)" d="m298 748h50c28 0 50 22 50 50h-50c-28 0-50-22-50-50z" opacity=".47"/>
<path transform="matrix(-.30198 .14729 -.14729 -.30198 309.73 546.48)" d="m138 416h50c28 0 50 22 50 50h-50c-28 0-50-22-50-50z" opacity=".51"/>
<path transform="matrix(-.34308 .085541 -.085541 -.34308 181.97 401.06)" d="m66 281h50c28 0 50 22 50 50h-50c-28 0-50-22-50-50z" opacity=".54"/>
<path transform="matrix(-.34308 .085541 -.085541 -.34308 209.49 1023.7)" d="m57 744h50c28 0 50 22 50 50h-50c-28 0-50-22-50-50z" opacity=".54"/>
<path transform="matrix(-.076947 .25168 -.25168 -.076947 729.77 342.82)" d="m522 427h50c28 0 50 22 50 50h-50c-28 0-50-22-50-50z" opacity=".4"/>
<path transform="matrix(-.021308 .24355 -.24355 -.021308 727.75 -62.367)" d="m638 78h50c28 0 50 22 50 50h-50c-28 0-50-22-50-50z" opacity=".37"/>
<path transform="matrix(-.33648 .096485 -.096485 -.33648 196.13 297.52)" d="m80 207h50c28 0 50 22 50 50h-50c-28 0-50-22-50-50z" opacity=".54"/>
<path transform="matrix(.0081713 .23399 -.23399 .0081713 867.72 269.59)" d="m718 428h50c28 0 50 22 50 50h-50c-28 0-50-22-50-50z" opacity=".36"/>
<path transform="matrix(-.034815 .24772 -.24772 -.034815 813.01 407.14)" d="m604 525h50c28 0 50 22 50 50h-50c-28 0-50-22-50-50z" opacity=".38"/>
<path transform="matrix(-.043874 .24882 -.24882 -.043874 762.19 254.08)" d="m586 370h50c28 0 50 22 50 50h-50c-28 0-50-22-50-50z" opacity=".39"/>
<path transform="matrix(-.28497 .16453 -.16453 -.28497 414.76 872.87)" d="m182 684h50c28 0 50 22 50 50h-50c-28 0-50-22-50-50z" opacity=".5"/>
<path transform="matrix(-.10173 .2518 -.2518 -.10173 730.81 504.2)" d="m481 554h50c28 0 50 22 50 50h-50c-28 0-50-22-50-50z" opacity=".42"/>
<path transform="matrix(.0041233 .23622 -.23622 .0041233 938.34 581.09)" d="m711 739h50c28 0 50 22 50 50h-50c-28 0-50-22-50-50z" opacity=".36"/>
<path transform="matrix(-.1619 .24002 -.24002 -.1619 609.45 487.11)" d="m370 481h50c28 0 50 22 50 50h-50c-28 0-50-22-50-50z" opacity=".44"/>
<path transform="matrix(-.34934 .074254 -.074254 -.34934 162.75 694.82)" d="m42 495h50c28 0 50 22 50 50h-50c-28 0-50-22-50-50z" opacity=".55"/>
<path transform="matrix(-.20223 .2246 -.2246 -.20223 541.77 555.72)" d="m302 503h50c28 0 50 22 50 50h-50c-28 0-50-22-50-50z" opacity=".46"/>
<path transform="matrix(-.35626 .056427 -.056427 -.35626 130.34 487.75)" d="m31 338h50c28 0 50 22 50 50h-50c-28 0-50-22-50-50z" opacity=".55"/>
<path transform="matrix(-.13162 .24755 -.24755 -.13162 711.65 683.85)" d="m424 683h50c28 0 50 22 50 50h-50c-28 0-50-22-50-50z" opacity=".43"/>
<path transform="matrix(-.076947 .25168 -.25168 -.076947 754.1 417.77)" d="m528 498h50c28 0 50 22 50 50h-50c-28 0-50-22-50-50z" opacity=".4"/>
<path transform="matrix(-.3274 .11273 -.11273 -.3274 184.02 25.818)" d="m86 6h50c28 0 50 22 50 50h-50c-28 0-50-22-50-50z" opacity=".53"/>
<path transform="matrix(-.18211 .2331 -.2331 -.18211 626.49 760.68)" d="m338 695h50c28 0 50 22 50 50h-50c-28 0-50-22-50-50z" opacity=".45"/>
<path transform="matrix(-.091912 .25252 -.25252 -.091912 653.94 146.69)" d="m489 234h50c28 0 50 22 50 50h-50c-28 0-50-22-50-50z" opacity=".41"/>
<path transform="matrix(-.3202 .12292 -.12292 -.3202 285.69 765.73)" d="m111 570h50c28 0 50 22 50 50h-50c-28 0-50-22-50-50z" opacity=".53"/>
<path transform="matrix(-.34308 .085541 -.085541 -.34308 210.89 855.02)" d="m66 619h50c28 0 50 22 50 50h-50c-28 0-50-22-50-50z" opacity=".54"/>
<path transform="matrix(-.021379 .24437 -.24437 -.021379 885.81 615.23)" d="m634 741h50c28 0 50 22 50 50h-50c-28 0-50-22-50-50z" opacity=".37"/>
<path transform="matrix(-.28462 .16432 -.16432 -.28462 291.4 1.8941)" d="m173 5h50c28 0 50 22 50 50h-50c-28 0-50-22-50-50z" opacity=".5"/>
<path transform="matrix(-.20223 .2246 -.2246 -.20223 571.95 710.58)" d="m303 632h50c28 0 50 22 50 50h-50c-28 0-50-22-50-50z" opacity=".46"/>
<path transform="matrix(-.20181 .22413 -.22413 -.20181 446.28 -40.947)" d="m315 9h50c28 0 50 22 50 50h-50c-28 0-50-22-50-50z" opacity=".46"/>
<path transform="matrix(-.057857 .2506 -.2506 -.057857 670.08 -24.673)" d="m555 95h50c28 0 50 22 50 50h-50c-28 0-50-22-50-50z" opacity=".39"/>
<path transform="matrix(-.19219 .22904 -.22904 -.19219 544.23 445.55)" d="m321 420h50c28 0 50 22 50 50h-50c-28 0-50-22-50-50z" opacity=".46"/>
<path transform="matrix(-.3712 .012962 -.012962 -.3712 44.944 257.38)" d="m-19 163h50c28 0 50 22 50 50h-50c-28 0-50-22-50-50z" opacity=".57"/>
<path transform="matrix(-.11163 .25073 -.25073 -.11163 764.44 727.08)" d="m464 745h50c28 0 50 22 50 50h-50c-28 0-50-22-50-50z" opacity=".42"/>
<path transform="matrix(-.1619 .24002 -.24002 -.1619 687.92 790.73)" d="m383 745h50c28 0 50 22 50 50h-50c-28 0-50-22-50-50z" opacity=".44"/>
<path transform="matrix(-.30198 .14729 -.14729 -.30198 356.59 972.38)" d="m137 743h50c28 0 50 22 50 50h-50c-28 0-50-22-50-50z" opacity=".51"/>
<path transform="matrix(-.043874 .24882 -.24882 -.043874 787.06 335.3)" d="m591 449h50c28 0 50 22 50 50h-50c-28 0-50-22-50-50z" opacity=".39"/>
<path transform="matrix(-.29359 .1561 -.1561 -.29359 366.68 689.4)" d="m166 534h50c28 0 50 22 50 50h-50c-28 0-50-22-50-50z" opacity=".51"/>
<path transform="matrix(-.10173 .2518 -.2518 -.10173 742.84 587.24)" d="m475 628h50c28 0 50 22 50 50h-50c-28 0-50-22-50-50z" opacity=".42"/>
<path transform="matrix(.0041233 .23622 -.23622 .0041233 827.36 108.8)" d="m712 265h50c28 0 50 22 50 50h-50c-28 0-50-22-50-50z" opacity=".36"/>
<path transform="matrix(-.21221 .21975 -.21975 -.21221 471.48 252.58)" d="m290 245h50c28 0 50 22 50 50h-50c-28 0-50-22-50-50z" opacity=".47"/>
<path transform="matrix(-.057997 .25121 -.25121 -.057997 828.48 664.99)" d="m550 746h50c28 0 50 22 50 50h-50c-28 0-50-22-50-50z" opacity=".39"/>
<path transform="matrix(-.057997 .25121 -.25121 -.057997 698.83 76.597)" d="m559 192h50c28 0 50 22 50 50h-50c-28 0-50-22-50-50z" opacity=".39"/>
<path transform="matrix(-.034815 .24772 -.24772 -.034815 840.53 494.65)" d="m610 611h50c28 0 50 22 50 50h-50c-28 0-50-22-50-50z" opacity=".38"/>
<path transform="matrix(-.23554 .20475 -.20475 -.23554 470.59 526.28)" d="m252 451h50c28 0 50 22 50 50h-50c-28 0-50-22-50-50z" opacity=".48"/>
<path transform="matrix(-.067416 .2516 -.2516 -.067416 795.89 551.53)" d="m541 631h50c28 0 50 22 50 50h-50c-28 0-50-22-50-50z" opacity=".4"/>
<path transform="matrix(-.021379 .24437 -.24437 -.021379 761.14 98.655)" d="m633 235h50c28 0 50 22 50 50h-50c-28 0-50-22-50-50z" opacity=".37"/>
<path transform="matrix(-.25461 .19186 -.19186 -.25461 457 637.57)" d="m230 526h50c28 0 50 22 50 50h-50c-28 0-50-22-50-50z" opacity=".49"/>
<path transform="matrix(-.25461 .19186 -.19186 -.25461 479.66 768.92)" d="m232 631h50c28 0 50 22 50 50h-50c-28 0-50-22-50-50z" opacity=".49"/>
<path transform="matrix(-.034663 .24664 -.24664 -.034663 686.58 -124.3)" d="m605 11h50c28 0 50 22 50 50h-50c-28 0-50-22-50-50z" opacity=".38"/>
<path transform="matrix(-.23554 .20475 -.20475 -.23554 529.62 821.17)" d="m260 691h50c28 0 50 22 50 50h-50c-28 0-50-22-50-50z" opacity=".48"/>
<path transform="matrix(-.32763 .11281 -.11281 -.32763 223.79 509.18)" d="m85 370h50c28 0 50 22 50 50h-50c-28 0-50-22-50-50z" opacity=".53"/>
<path transform="matrix(-.22582 .21058 -.21058 -.22582 476.71 424.17)" d="m270 376h50c28 0 50 22 50 50h-50c-28 0-50-22-50-50z" opacity=".47"/>
<path transform="matrix(-.057997 .25121 -.25121 -.057997 723.31 170.26)" d="m561 281h50c28 0 50 22 50 50h-50c-28 0-50-22-50-50z" opacity=".39"/>
<path transform="matrix(-.3124 .1326 -.1326 -.3124 242.75 184.95)" d="m119 133h50c28 0 50 22 50 50h-50c-28 0-50-22-50-50z" opacity=".52"/>
<path transform="matrix(-.11163 .25073 -.25073 -.11163 682.15 424.39)" d="m452 470h50c28 0 50 22 50 50h-50c-28 0-50-22-50-50z" opacity=".42"/>
</g>
<g fill="none" stroke="hsl(0, 0%, 38%)" stroke-width="3">
<path transform="matrix(-.3712 .012962 -.012962 -.3712 48.039 439.74)" d="m-18 296h50c28 0 50 22 50 50h-50c-28 0-50-22-50-50z" opacity=".57"/>
<path transform="matrix(-.016948 .24237 -.24237 -.016948 886.99 529.08)" d="m658 664h50c28 0 50 22 50 50h-50c-28 0-50-22-50-50z" opacity=".37"/>
<path transform="matrix(-.016948 .24237 -.24237 -.016948 866.29 428.69)" d="m661 566h50c28 0 50 22 50 50h-50c-28 0-50-22-50-50z" opacity=".37"/>
<path transform="matrix(-.3664 .032056 -.032056 -.3664 51.35 149.18)" d="m-15 85h50c28 0 50 22 50 50h-50c-28 0-50-22-50-50z" opacity=".56"/>
<path transform="matrix(-.043874 .24882 -.24882 -.043874 841.61 582.65)" d="m587 685h50c28 0 50 22 50 50h-50c-28 0-50-22-50-50z" opacity=".39"/>
<path transform="matrix(-.1415 .24508 -.24508 -.1415 563.15 53.432)" d="m412 121h50c28 0 50 22 50 50h-50c-28 0-50-22-50-50z" opacity=".43"/>
<path transform="matrix(-.33648 .096485 -.096485 -.33648 218.8 611.59)" d="m80 442h50c28 0 50 22 50 50h-50c-28 0-50-22-50-50z" opacity=".54"/>
<path transform="matrix(-.32763 .11281 -.11281 -.32763 269.41 935.89)" d="m92 692h50c28 0 50 22 50 50h-50c-28 0-50-22-50-50z" opacity=".53"/>
<path transform="matrix(-.3712 .012962 -.012962 -.3712 48.729 657.77)" d="m-19 455h50c28 0 50 22 50 50h-50c-28 0-50-22-50-50z" opacity=".57"/>
<path transform="matrix(-.35626 .056427 -.056427 -.35626 151.56 932.49)" d="m33 666h50c28 0 50 22 50 50h-50c-28 0-50-22-50-50z" opacity=".55"/>
<path transform="matrix(-.36645 .03206 -.03206 -.36645 71 345.6)" d="m-4 229h50c28 0 50 22 50 50h-50c-28 0-50-22-50-50z" opacity=".56"/>
<path transform="matrix(-.27613 .17255 -.17255 -.27613 383.51 587.48)" d="m184 467h50c28 0 50 22 50 50h-50c-28 0-50-22-50-50z" opacity=".5"/>
<path transform="matrix(-.30198 .14729 -.14729 -.30198 287.9 341.93)" d="m139 259h50c28 0 50 22 50 50h-50c-28 0-50-22-50-50z" opacity=".51"/>
<path transform="matrix(-.11163 .25073 -.25073 -.11163 670.63 337.04)" d="m459 393h50c28 0 50 22 50 50h-50c-28 0-50-22-50-50z" opacity=".42"/>
<path transform="matrix(-.36645 .03206 -.03206 -.36645 72.532 993.62)" d="m-14 703h50c28 0 50 22 50 50h-50c-28 0-50-22-50-50z" opacity=".56"/>
<path transform="matrix(-.057997 .25121 -.25121 -.057997 783.52 475.61)" d="m550 567h50c28 0 50 22 50 50h-50c-28 0-50-22-50-50z" opacity=".39"/>
<path transform="matrix(-.086579 .25144 -.25144 -.086579 783.34 639.53)" d="m505 692h50c28 0 50 22 50 50h-50c-28 0-50-22-50-50z" opacity=".41"/>
<path transform="matrix(-.030163 .24566 -.24566 -.030163 743.45 17.598)" d="m629 154h50c28 0 50 22 50 50h-50c-28 0-50-22-50-50z" opacity=".38"/>
<path transform="matrix(-.10173 .2518 -.2518 -.10173 660.91 233.83)" d="m474 307h50c28 0 50 22 50 50h-50c-28 0-50-22-50-50z" opacity=".42"/>
<path transform="matrix(-.34294 .085505 -.085505 -.34294 157.27 119.43)" d="m61 71h50c28 0 50 22 50 50h-50c-28 0-50-22-50-50z" opacity=".54"/>
<path transform="matrix(-.26393 .1848 -.1848 -.26393 477.24 924.25)" d="m215 745h50c28 0 50 22 50 50h-50c-28 0-50-22-50-50z" opacity=".49"/>
<path transform="matrix(.0081713 .23399 -.23399 .0081713 925.4 505.18)" d="m720 666h50c28 0 50 22 50 50h-50c-28 0-50-22-50-50z" opacity=".36"/>
<path transform="matrix(-.13162 .24755 -.24755 -.13162 585.44 133.99)" d="m419 196h50c28 0 50 22 50 50h-50c-28 0-50-22-50-50z" opacity=".43"/>
<path transform="matrix(-.14169 .24541 -.24541 -.14169 666.19 520.91)" d="m414 531h50c28 0 50 22 50 50h-50c-28 0-50-22-50-50z" opacity=".43"/>
<path transform="matrix(-.17167 .23628 -.23628 -.17167 503.77 13.024)" d="m361 69h50c28 0 50 22 50 50h-50c-28 0-50-22-50-50z" opacity=".45"/>
<path transform="matrix(-.15178 .2429 -.2429 -.15178 610.63 396.94)" d="m388 412h50c28 0 50 22 50 50h-50c-28 0-50-22-50-50z" opacity=".44"/>
<path transform="matrix(-.36639 .032055 -.032055 -.36639 62.609 46.381)" d="m-5 10h50c28 0 50 22 50 50h-50c-28 0-50-22-50-50z" opacity=".56"/>
<path transform="matrix(-.11135 .25009 -.25009 -.11135 596.96 -24.577)" d="m466 69h50c28 0 50 22 50 50h-50c-28 0-50-22-50-50z" opacity=".42"/>
<path transform="matrix(-.36645 .03206 -.03206 -.36645 72.704 1059.2)" d="m-15 751h50c28 0 50 22 50 50h-50c-28 0-50-22-50-50z" opacity=".56"/>
<path transform="matrix(-.016948 .24237 -.24237 -.016948 817.19 258.77)" d="m653 397h50c28 0 50 22 50 50h-50c-28 0-50-22-50-50z" opacity=".37"/>
<path transform="matrix(.0082026 .23489 -.23489 .0082026 757.21 -137.44)" d="m704 15h50c28 0 50 22 50 50h-50c-28 0-50-22-50-50z" opacity=".36"/>
<path transform="matrix(-.26375 .18468 -.18468 -.26375 347.93 128.57)" d="m205 114h50c28 0 50 22 50 50h-50c-28 0-50-22-50-50z" opacity=".49"/>
<path transform="matrix(-.18211 .2331 -.2331 -.18211 606.59 603.73)" d="m347 564h50c28 0 50 22 50 50h-50c-28 0-50-22-50-50z" opacity=".45"/>
<path transform="matrix(-.31249 .13264 -.13264 -.31249 327.35 851.29)" d="m132 642h50c28 0 50 22 50 50h-50c-28 0-50-22-50-50z" opacity=".52"/>
<path transform="matrix(-.3202 .12292 -.12292 -.3202 279.35 669.11)" d="m113 497h50c28 0 50 22 50 50h-50c-28 0-50-22-50-50z" opacity=".53"/>
<path transform="matrix(-.24476 .1982 -.1982 -.24476 370.04 7.447)" d="m239 27h50c28 0 50 22 50 50h-50c-28 0-50-22-50-50z" opacity=".48"/>
<path transform="matrix(-.34934 .074254 -.074254 -.34934 171.55 780.96)" d="m45 559h50c28 0 50 22 50 50h-50c-28 0-50-22-50-50z" opacity=".55"/>
<path transform="matrix(-.36645 .03206 -.03206 -.36645 70.275 839.18)" d="m-13 590h50c28 0 50 22 50 50h-50c-28 0-50-22-50-50z" opacity=".56"/>
<path transform="matrix(.0041233 .23622 -.23622 .0041233 805.24 28.846)" d="m709 184h50c28 0 50 22 50 50h-50c-28 0-50-22-50-50z" opacity=".36"/>
<path transform="matrix(-.26393 .1848 -.1848 -.26393 385.73 289.57)" d="m216 243h50c28 0 50 22 50 50h-50c-28 0-50-22-50-50z" opacity=".49"/>
<path transform="matrix(-.091855 .25237 -.25237 -.091855 634.86 54.542)" d="m491 150h50c28 0 50 22 50 50h-50c-28 0-50-22-50-50z" opacity=".41"/>
<path transform="matrix(-.30198 .14729 -.14729 -.30198 293.74 440.16)" d="m135 334h50c28 0 50 22 50 50h-50c-28 0-50-22-50-50z" opacity=".51"/>
<path transform="matrix(-.3712 .012962 -.012962 -.3712 40.849 549.51)" d="m-24 376h50c28 0 50 22 50 50h-50c-28 0-50-22-50-50z" opacity=".57"/>
<path transform="matrix(-.14169 .24541 -.24541 -.14169 611.17 309.38)" d="m406 344h50c28 0 50 22 50 50h-50c-28 0-50-22-50-50z" opacity=".43"/>
<path transform="matrix(-.23554 .20475 -.20475 -.23554 458.61 346.73)" d="m266 308h50c28 0 50 22 50 50h-50c-28 0-50-22-50-50z" opacity=".48"/>
<path transform="matrix(-.27613 .17255 -.17255 -.27613 376.77 393.47)" d="m199 317h50c28 0 50 22 50 50h-50c-28 0-50-22-50-50z" opacity=".5"/>
<path transform="matrix(-.17201 .23675 -.23675 -.17201 531.29 208.61)" d="m351 234h50c28 0 50 22 50 50h-50c-28 0-50-22-50-50z" opacity=".45"/>
<path transform="matrix(-.081887 .25202 -.25202 -.081887 620.34 -103.44)" d="m515 11h50c28 0 50 22 50 50h-50c-28 0-50-22-50-50z" opacity=".4"/>
<path transform="matrix(-.35626 .056427 -.056427 -.35626 130.45 588.29)" d="m28 412h50c28 0 50 22 50 50h-50c-28 0-50-22-50-50z" opacity=".55"/>
<path transform="matrix(-.23554 .20475 -.20475 -.23554 421.49 184.04)" d="m258 175h50c28 0 50 22 50 50h-50c-28 0-50-22-50-50z" opacity=".48"/>
<path transform="matrix(-.26393 .1848 -.1848 -.26393 392.68 478.33)" d="m200 390h50c28 0 50 22 50 50h-50c-28 0-50-22-50-50z" opacity=".49"/>
<path transform="matrix(-.14169 .24541 -.24541 -.14169 594.88 228.07)" d="m407 273h50c28 0 50 22 50 50h-50c-28 0-50-22-50-50z" opacity=".43"/>
<path transform="matrix(-.28497 .16453 -.16453 -.28497 401.57 759.63)" d="m183 596h50c28 0 50 22 50 50h-50c-28 0-50-22-50-50z" opacity=".5"/>
</g>
</svg>
