<?xml version="1.0" encoding="UTF-8"?>
<svg version="1.1" viewBox="0 0 800 800" xmlns="http://www.w3.org/2000/svg">
<g fill="none" stroke="hsl(0, 0%, 40%)" stroke-width="5">
<path transform="rotate(84 400 400)" d="m360.26-274.99c16.279-32.902 63.204-32.902 79.482 0l648.6 1310.6c14.583 29.471-6.8563 64.007-39.741 64.007h-1297.2c-32.885 0-54.324-34.537-39.741-64.007l648.6-1310.6z" opacity=".05"/>
<path transform="rotate(82 400 400)" d="m361.2-258.92c15.891-32.118 61.699-32.118 77.59 0l633.16 1279.4c14.236 28.769-6.6931 62.483-38.795 62.483h-1266.3c-32.102 0-53.031-33.714-38.795-62.483l633.16-1279.4z" opacity=".07"/>
<path transform="rotate(80 400 400)" d="m362.15-242.85c15.504-31.335 60.194-31.335 75.698 0l617.72 1248.2c13.888 28.067-6.5298 60.959-37.849 60.959h-1235.4c-31.319 0-51.737-32.892-37.849-60.959l617.72-1248.2z" opacity=".1"/>
<path transform="rotate(78 400 400)" d="m363.1-226.78c15.116-30.551 58.689-30.551 73.805 0l602.27 1217c13.541 27.366-6.3666 59.435-36.903 59.435h-1204.5c-30.536 0-50.444-32.07-36.903-59.435l602.27-1217z" opacity=".12"/>
<path transform="rotate(76 400 400)" d="m364.04-210.7c14.729-29.768 57.184-29.768 71.913 0l586.83 1185.8c13.194 26.664-6.2034 57.911-35.956 57.911h-1173.7c-29.753 0-49.15-31.247-35.956-57.911l586.83-1185.8z" opacity=".14"/>
<path transform="rotate(74 400 400)" d="m364.99-194.63c14.341-28.985 55.679-28.985 70.02 0l571.39 1154.6c12.847 25.962-6.0401 56.387-35.01 56.387h-1142.8c-28.97 0-47.857-30.425-35.01-56.387l571.39-1154.6z" opacity=".17"/>
<path transform="rotate(72 400 400)" d="m365.94-178.56c13.953-28.201 54.174-28.201 68.128 0l555.95 1123.4c12.5 25.261-5.8769 54.863-34.064 54.863h-1111.9c-28.187 0-46.564-29.603-34.064-54.863l555.95-1123.4z" opacity=".19"/>
<path transform="rotate(70 400 400)" d="m366.88-162.49c13.566-27.418 52.67-27.418 66.235 0l540.5 1092.2c12.152 24.559-5.7136 53.339-33.118 53.339h-1081c-27.404 0-45.27-28.781-33.118-53.339l540.5-1092.2z" opacity=".21"/>
<path transform="rotate(68 400 400)" d="m367.83-146.42c13.178-26.635 51.165-26.635 64.343 0l525.06 1061c11.805 23.857-5.5504 51.815-32.171 51.815h-1050.1c-26.621 0-43.977-27.958-32.171-51.815l525.06-1061z" opacity=".24"/>
<path transform="rotate(66 400 400)" d="m368.77-130.35c12.791-25.851 49.66-25.851 62.451 0l509.62 1029.8c11.458 23.155-5.3871 50.291-31.225 50.291h-1019.2c-25.838 0-42.683-27.136-31.225-50.291l509.62-1029.8z" opacity=".26"/>
<path transform="rotate(64 400 400)" d="m369.72-114.28c12.403-25.068 48.155-25.068 60.558 0l494.17 998.59c11.111 22.454-5.2239 48.767-30.279 48.767h-988.35c-25.055 0-41.39-26.314-30.279-48.767l494.17-998.59z" opacity=".28"/>
<path transform="rotate(62 400 400)" d="m370.67-98.206c12.015-24.284 46.65-24.284 58.666 0l478.73 967.38c10.764 21.752-5.0606 47.243-29.333 47.243h-957.46c-24.272 0-40.096-25.491-29.333-47.243l478.73-967.38z" opacity=".3"/>
<path transform="rotate(60 400 400)" d="m371.61-82.135c11.628-23.501 45.145-23.501 56.773 0l463.29 936.18c10.416 21.05-4.8974 45.719-28.387 45.719h-926.58c-23.489 0-38.803-24.669-28.387-45.719l463.29-936.18z" opacity=".33"/>
<path transform="rotate(58 400 400)" d="m372.56-66.064c11.24-22.718 43.641-22.718 54.881 0l447.84 904.97c10.069 20.349-4.7341 44.195-27.44 44.195h-895.69c-22.706 0-37.51-23.847-27.44-44.195l447.84-904.97z" opacity=".35"/>
<path transform="rotate(56 400 400)" d="m373.51-49.992c10.853-21.934 42.136-21.934 52.988 0l432.4 873.76c9.7219 19.647-4.5709 42.671-26.494 42.671h-864.8c-21.923 0-36.216-23.024-26.494-42.671l432.4-873.76z" opacity=".37"/>
<path transform="rotate(54 400 400)" d="m374.45-33.921c10.465-21.151 40.631-21.151 51.096 0l416.96 842.56c9.3747 18.945-4.4076 41.148-25.548 41.148h-833.92c-21.14 0-34.923-22.202-25.548-41.148l416.96-842.56z" opacity=".4"/>
<path transform="rotate(52 400 400)" d="m375.4-17.85c10.077-20.368 39.126-20.368 49.203 0l401.52 811.35c9.0275 18.244-4.2444 39.624-24.602 39.624h-803.03c-20.357 0-33.629-21.38-24.602-39.624l401.52-811.35z" opacity=".42"/>
<path transform="rotate(50 400 400)" d="m376.34-1.779c9.6898-19.584 37.621-19.584 47.311 0l386.07 780.15c8.6803 17.542-4.0812 38.1-23.656 38.1h-772.15c-19.574 0-32.336-20.558-23.656-38.1l386.07-780.15z" opacity=".44"/>
<path transform="rotate(48 400 400)" d="m377.29 14.292c9.3023-18.801 36.116-18.801 45.419 0l370.63 748.94c8.3331 16.84-3.9179 36.576-22.709 36.576h-741.26c-18.791 0-31.042-19.735-22.709-36.576l370.63-748.94z" opacity=".47"/>
<path transform="rotate(46 400 400)" d="m378.24 30.363c8.9147-18.018 34.611-18.018 43.526 0l355.19 717.73c7.9859 16.139-3.7547 35.052-21.763 35.052h-710.37c-18.008 0-29.749-18.913-21.763-35.052l355.19-717.73z" opacity=".49"/>
<path transform="rotate(44 400 400)" d="m379.18 46.435c8.5271-17.234 33.107-17.234 41.634 0l339.74 686.53c7.6386 15.437-3.5914 33.528-20.817 33.528h-679.49c-17.225 0-28.455-18.091-20.817-33.528l339.74-686.53z" opacity=".51"/>
<path transform="rotate(42 400 400)" d="m380.13 62.506c8.1395-16.451 31.602-16.451 39.741 0l324.3 655.32c7.2914 14.735-3.4282 32.004-19.871 32.004h-648.6c-16.442 0-27.162-17.268-19.871-32.004l324.3-655.32z" opacity=".54"/>
<path transform="rotate(40 400 400)" d="m381.08 78.577c7.7519-15.667 30.097-15.667 37.849 0l308.86 624.12c6.9442 14.034-3.2649 30.48-18.924 30.48h-617.72c-15.659 0-25.869-16.446-18.924-30.48l308.86-624.12z" opacity=".56"/>
<path transform="rotate(38 400 400)" d="m382.02 94.648c7.3643-14.884 28.592-14.884 35.956 0l293.42 592.91c6.597 13.332-3.1017 28.956-17.978 28.956h-586.83c-14.877 0-24.575-15.624-17.978-28.956l293.42-592.91z" opacity=".58"/>
<path transform="rotate(36 400 400)" d="m382.97 110.72c6.9767-14.101 27.087-14.101 34.064 0l277.97 561.71c6.2498 12.63-2.9384 27.432-17.032 27.432h-555.95c-14.094 0-23.282-14.801-17.032-27.432l277.97-561.71z" opacity=".61"/>
<path transform="rotate(34 400 400)" d="m383.91 126.79c6.5891-13.317 25.582-13.317 32.171 0l262.53 530.5c5.9026 11.929-2.7752 25.908-16.086 25.908h-525.06c-13.311 0-21.988-13.979-16.086-25.908l262.53-530.5z" opacity=".63"/>
<path transform="rotate(32 400 400)" d="m384.86 142.86c6.2015-12.534 24.078-12.534 30.279 0l247.09 499.29c5.5554 11.227-2.6119 24.384-15.14 24.384h-494.17c-12.528 0-20.695-13.157-15.14-24.384l247.09-499.29z" opacity=".65"/>
<path transform="rotate(30 400 400)" d="m385.81 158.93c5.8139-11.751 22.573-11.751 28.387 0l231.64 468.09c5.2082 10.525-2.4487 22.86-14.193 22.86h-463.29c-11.745 0-19.401-12.335-14.193-22.86l231.64-468.09z" opacity=".68"/>
<path transform="rotate(28 400 400)" d="m386.75 175c5.4263-10.967 21.068-10.967 26.494 0l216.2 436.88c4.861 9.8235-2.2854 21.336-13.247 21.336h-432.4c-10.962 0-18.108-11.512-13.247-21.336l216.2-436.88z" opacity=".7"/>
<path transform="rotate(26 400 400)" d="m387.7 191.07c5.0387-10.184 19.563-10.184 24.602 0l200.76 405.68c4.5137 9.1219-2.1222 19.812-12.301 19.812h-401.52c-10.179 0-16.815-10.69-12.301-19.812l200.76-405.68z" opacity=".72"/>
<path transform="rotate(24 400 400)" d="m388.65 207.15c4.6511-9.4004 18.058-9.4004 22.709 0l185.32 374.47c4.1665 8.4202-1.959 18.288-11.355 18.288h-370.63c-9.3957 0-15.521-9.8676-11.355-18.288l185.32-374.47z" opacity=".75"/>
<path transform="rotate(22 400 400)" d="m389.59 223.22c4.2635-8.6171 16.553-8.6171 20.817 0l169.87 343.26c3.8193 7.7185-1.7957 16.764-10.408 16.764h-339.74c-8.6127 0-14.228-9.0453-10.408-16.764l169.87-343.26z" opacity=".77"/>
<path transform="rotate(20 400 400)" d="m390.54 239.29c3.8759-7.8337 15.048-7.8337 18.924 0l154.43 312.06c3.4721 7.0168-1.6325 15.24-9.4622 15.24h-308.86c-7.8297 0-12.934-8.223-9.4622-15.24l154.43-312.06z" opacity=".79"/>
<path transform="rotate(18 400 400)" d="m391.48 255.36c3.4883-7.0503 13.544-7.0503 17.032 0l138.99 280.85c3.1249 6.3151-1.4692 13.716-8.516 13.716h-277.97c-7.0468 0-11.641-7.4007-8.516-13.716l138.99-280.85z" opacity=".81"/>
<path transform="rotate(16 400 400)" d="m392.43 271.43c3.1008-6.267 12.039-6.267 15.14 0l123.54 249.65c2.7777 5.6134-1.306 12.192-7.5698 12.192h-247.09c-6.2638 0-10.347-6.5784-7.5698-12.192l123.54-249.65z" opacity=".84"/>
<path transform="rotate(14 400 400)" d="m393.38 287.5c2.7132-5.4836 10.534-5.4836 13.247 0l108.1 218.44c2.4305 4.9118-1.1427 10.668-6.6235 10.668h-216.2c-5.4808 0-9.054-5.7561-6.6235-10.668l108.1-218.44z" opacity=".86"/>
<path transform="rotate(12 400 400)" d="m394.32 303.57c2.3256-4.7002 9.0291-4.7002 11.355 0l92.658 187.24c2.0833 4.2101-0.97948 9.1439-5.6773 9.1439h-185.32c-4.6978 0-7.7606-4.9338-5.6773-9.1439l92.658-187.24z" opacity=".88"/>
<path transform="rotate(10 400 400)" d="m395.27 319.64c1.938-3.9168 7.5242-3.9168 9.4622 0l77.215 156.03c1.7361 3.5084-0.81623 7.6199-4.7311 7.6199h-154.43c-3.9149 0-6.4672-4.1115-4.7311-7.6199l77.215-156.03z" opacity=".91"/>
<path transform="rotate(8 400 400)" d="m396.22 335.72c1.5504-3.1335 6.0194-3.1335 7.5698 0l61.772 124.82c1.3888 2.8067-0.65298 6.0959-3.7849 6.0959h-123.54c-3.1319 0-5.1737-3.2892-3.7849-6.0959l61.772-124.82z" opacity=".93"/>
<path transform="rotate(6 400 400)" d="m397.16 351.79c1.1628-2.3501 4.5145-2.3501 5.6773 0l46.329 93.618c1.0416 2.105-0.48974 4.5719-2.8387 4.5719h-92.658c-2.3489 0-3.8803-2.4669-2.8387-4.5719l46.329-93.618z" opacity=".95"/>
<path transform="rotate(4 400 400)" d="m398.11 367.86c0.77519-1.5667 3.0097-1.5667 3.7849 0l30.886 62.412c0.69442 1.4034-0.32649 3.048-1.8924 3.048h-61.772c-1.5659 0-2.5869-1.6446-1.8924-3.048l30.886-62.412z" opacity=".98"/>
<path transform="rotate(2 400 400)" d="m399.05 383.93c0.38759-0.78337 1.5048-0.78337 1.8924 0l15.443 31.206c0.34721 0.70168-0.16325 1.524-0.94622 1.524h-30.886c-0.78297 0-1.2934-0.8223-0.94622-1.524l15.443-31.206z"/>
</g>
</svg>
