<?xml version="1.0" encoding="UTF-8"?>
<svg version="1.1" viewBox="0 0 800 800" xmlns="http://www.w3.org/2000/svg">
<rect width="100%" height="100%" fill="hsl(0, 0%, 100%)"/>
<g fill="hsl(0, 0%, 0%)">
<rect transform="rotate(45 340 425)" x="148" y="424" width="384" height="2" rx="1" opacity=".66"/>
<rect transform="rotate(45 393 309)" x="97" y="308" width="592" height="2" rx="1" opacity=".17"/>
<rect transform="rotate(45 597 70)" x="507" y="69" width="180" height="2" rx="1" opacity=".39"/>
<rect transform="rotate(45 57 687)" x="-38.5" y="686" width="191" height="2" rx="1" opacity=".28"/>
<rect transform="rotate(45 101 760)" x="-55.5" y="759" width="313" height="2" rx="1" opacity=".67"/>
<rect transform="rotate(45 61 584)" x="-175.5" y="583" width="473" height="2" rx="1" opacity=".75"/>
<rect transform="rotate(45 757 658)" x="593" y="657" width="328" height="2" rx="1" opacity=".17"/>
<rect transform="rotate(45 252 762)" x="118" y="761" width="268" height="2" rx="1" opacity=".39"/>
<rect transform="rotate(45 568 737)" x="344.5" y="736" width="447" height="2" rx="1" opacity=".99"/>
<rect transform="rotate(45 240 167)" x="173" y="166" width="134" height="2" rx="1" opacity=".26"/>
<rect transform="rotate(45 641 440)" x="176" y="439" width="930" height="2" rx="1" opacity=".75"/>
<rect transform="rotate(45 485 88)" x="386.5" y="87" width="197" height="2" rx="1" opacity=".22"/>
<rect transform="rotate(45 440 727)" x="293" y="726" width="294" height="2" rx="1" opacity=".49"/>
<rect transform="rotate(45 42 74)" x="-83.5" y="73" width="251" height="2" rx="1" opacity=".86"/>
<rect transform="rotate(45 630 295)" x="355.5" y="294" width="549" height="2" rx="1" opacity=".09"/>
<rect transform="rotate(45 223 330)" x="-83" y="329" width="612" height="2" rx="1" opacity=".09"/>
<rect transform="rotate(45 111 457)" x="-142.5" y="456" width="507" height="2" rx="1" opacity=".15"/>
<rect transform="rotate(45 63 258)" x="-101.5" y="257" width="329" height="2" rx="1" opacity=".46"/>
<rect transform="rotate(45 132 194)" x="-79" y="193" width="422" height="2" rx="1" opacity=".42"/>
<rect transform="rotate(45 206 527)" x="-244.5" y="526" width="901" height="2" rx="1" opacity=".3"/>
<rect transform="rotate(45 194 644)" x="114" y="643" width="160" height="2" rx="1" opacity=".19"/>
<rect transform="rotate(45 336 191)" x="241.5" y="190" width="189" height="2" rx="1" opacity=".82"/>
<rect transform="rotate(45 744 517)" x="710" y="516" width="68" height="2" rx="1" opacity=".62"/>
<rect transform="rotate(45 733 59)" x="471.5" y="58" width="523" height="2" rx="1" opacity=".4"/>
<rect transform="rotate(45 326 733)" x="182.5" y="732" width="287" height="2" rx="1" opacity=".51"/>
<rect transform="rotate(45 27 764)" x="-91.5" y="763" width="237" height="2" rx="1" opacity=".32"/>
<rect transform="rotate(45 146 70)" x="-241.5" y="69" width="775" height="2" rx="1" opacity=".18"/>
<rect transform="rotate(45 50 378)" x="-180" y="377" width="460" height="2" rx="1" opacity=".08"/>
<rect transform="rotate(45 509 421)" x="381.5" y="420" width="255" height="2" rx="1" opacity=".09"/>
<rect transform="rotate(45 667 700)" x="590.5" y="699" width="153" height="2" rx="1" opacity=".38"/>
<rect transform="rotate(45 335 540)" x="216.5" y="539" width="237" height="2" rx="1" opacity=".29"/>
<rect transform="rotate(45 437 182)" x="129" y="181" width="616" height="2" rx="1" opacity=".54"/>
<rect transform="rotate(45 174 737)" x="2.5" y="736" width="343" height="2" rx="1" opacity=".39"/>
<rect transform="rotate(45 313 52)" x="230.5" y="51" width="165" height="2" rx="1" opacity=".62"/>
<rect transform="rotate(45 633 584)" x="226.5" y="583" width="813" height="2" rx="1" opacity=".42"/>
<rect transform="rotate(45 734 766)" x="653.5" y="765" width="161" height="2" rx="1" opacity=".3"/>
<rect transform="rotate(45 330 635)" x="4" y="634" width="652" height="2" rx="1" opacity=".79"/>
<rect transform="rotate(45 525 604)" x="245" y="603" width="560" height="2" rx="1" opacity=".11"/>
<rect transform="rotate(45 747 339)" x="692" y="338" width="110" height="2" rx="1" opacity=".51"/>
<rect transform="rotate(45 533 260)" x="181.5" y="259" width="703" height="2" rx="1" opacity=".22"/>
<rect transform="rotate(45 714 183)" x="269.5" y="182" width="889" height="2" rx="1" opacity=".86"/>
<rect transform="rotate(45 447 542)" x="368" y="541" width="158" height="2" rx="1" opacity=".08"/>
</g>
</svg>
