<?xml version="1.0" encoding="UTF-8"?>
<svg version="1.1" viewBox="0 0 800 800" xmlns="http://www.w3.org/2000/svg">
<rect width="100%" height="100%" fill="hsl(0, 0%, 100%)"/>
<g fill="hsl(0, 0%, 0%)">
<rect transform="rotate(40 384 231)" x="286" y="228.5" width="196" height="5" rx="2.5" opacity=".31"/>
<rect transform="rotate(40 29 402)" x="-38" y="399.5" width="134" height="5" rx="2.5" opacity=".73"/>
<rect transform="rotate(40 373 772)" x="351" y="769.5" width="44" height="5" rx="2.5" opacity=".52"/>
<rect transform="rotate(40 573 22)" x="492" y="19.5" width="162" height="5" rx="2.5" opacity=".36"/>
<rect transform="rotate(40 317 68)" x="275.5" y="65.5" width="83" height="5" rx="2.5" opacity=".56"/>
<rect transform="rotate(40 225 624)" x="117" y="621.5" width="216" height="5" rx="2.5" opacity=".14"/>
<rect transform="rotate(40 387 642)" x="345" y="639.5" width="84" height="5" rx="2.5" opacity=".6"/>
<rect transform="rotate(40 47 364)" x="-4.5" y="361.5" width="103" height="5" rx="2.5" opacity=".58"/>
<rect transform="rotate(40 94 133)" x="4.5" y="130.5" width="179" height="5" rx="2.5" opacity=".59"/>
<rect transform="rotate(40 677 772)" x="627" y="769.5" width="100" height="5" rx="2.5" opacity=".27"/>
<rect transform="rotate(40 387 139)" x="285" y="136.5" width="204" height="5" rx="2.5" opacity=".56"/>
<rect transform="rotate(40 399 324)" x="352" y="321.5" width="94" height="5" rx="2.5" opacity=".15"/>
<rect transform="rotate(40 177 158)" x="94" y="155.5" width="166" height="5" rx="2.5" opacity=".97"/>
<rect transform="rotate(40 764 167)" x="691" y="164.5" width="146" height="5" rx="2.5" opacity=".84"/>
<rect transform="rotate(40 686 246)" x="634.5" y="243.5" width="103" height="5" rx="2.5" opacity=".22"/>
<rect transform="rotate(40 151 24)" x="64" y="21.5" width="174" height="5" rx="2.5" opacity=".64"/>
<rect transform="rotate(40 458 533)" x="404.5" y="530.5" width="107" height="5" rx="2.5" opacity=".38"/>
<rect transform="rotate(40 776 515)" x="684" y="512.5" width="184" height="5" rx="2.5" opacity=".17"/>
<rect transform="rotate(40 631 570)" x="601" y="567.5" width="60" height="5" rx="2.5" opacity=".89"/>
<rect transform="rotate(40 108 322)" x="55" y="319.5" width="106" height="5" rx="2.5" opacity=".24"/>
<rect transform="rotate(40 600 501)" x="544.5" y="498.5" width="111" height="5" rx="2.5" opacity=".14"/>
<rect transform="rotate(40 115 597)" x="56" y="594.5" width="118" height="5" rx="2.5" opacity=".37"/>
<rect transform="rotate(40 307 297)" x="239" y="294.5" width="136" height="5" rx="2.5" opacity=".74"/>
<rect transform="rotate(40 577 413)" x="493" y="410.5" width="168" height="5" rx="2.5" opacity=".95"/>
<rect transform="rotate(40 254 83)" x="195.5" y="80.5" width="117" height="5" rx="2.5" opacity=".28"/>
<rect transform="rotate(40 217 210)" x="182" y="207.5" width="70" height="5" rx="2.5" opacity=".17"/>
<rect transform="rotate(40 75 649)" x="24.5" y="646.5" width="101" height="5" rx="2.5" opacity=".42"/>
<rect transform="rotate(40 23 217)" x="9" y="214.5" width="28" height="5" rx="2.5" opacity=".13"/>
<rect transform="rotate(40 249 404)" x="173" y="401.5" width="152" height="5" rx="2.5" opacity=".63"/>
<rect transform="rotate(40 24 640)" x="-14" y="637.5" width="76" height="5" rx="2.5" opacity=".3"/>
<rect transform="rotate(40 605 76)" x="588.5" y="73.5" width="33" height="5" rx="2.5" opacity=".15"/>
<rect transform="rotate(40 365 497)" x="248.5" y="494.5" width="233" height="5" rx="2.5" opacity=".26"/>
<rect transform="rotate(40 696 721)" x="656.5" y="718.5" width="79" height="5" rx="2.5" opacity=".87"/>
<rect transform="rotate(40 686 44)" x="629" y="41.5" width="114" height="5" rx="2.5" opacity=".94"/>
<rect transform="rotate(40 575 671)" x="484" y="668.5" width="182" height="5" rx="2.5" opacity=".82"/>
<rect transform="rotate(40 93 42)" x="64" y="39.5" width="58" height="5" rx="2.5" opacity=".88"/>
<rect transform="rotate(40 117 174)" x="56" y="171.5" width="122" height="5" rx="2.5" opacity=".98"/>
<rect transform="rotate(40 84 267)" x="28" y="264.5" width="112" height="5" rx="2.5" opacity=".25"/>
<rect transform="rotate(40 434 66)" x="367.5" y="63.5" width="133" height="5" rx="2.5" opacity=".85"/>
<rect transform="rotate(40 726 669)" x="693.5" y="666.5" width="65" height="5" rx="2.5" opacity=".76"/>
<rect transform="rotate(40 315 446)" x="296" y="443.5" width="38" height="5" rx="2.5" opacity=".59"/>
<rect transform="rotate(40 429 414)" x="347" y="411.5" width="164" height="5" rx="2.5" opacity=".57"/>
<rect transform="rotate(40 202 715)" x="162.5" y="712.5" width="79" height="5" rx="2.5" opacity=".19"/>
<rect transform="rotate(40 686 600)" x="596.5" y="597.5" width="179" height="5" rx="2.5" opacity=".92"/>
<rect transform="rotate(40 27 273)" x="-37" y="270.5" width="128" height="5" rx="2.5" opacity=".38"/>
<rect transform="rotate(40 507 354)" x="379" y="351.5" width="256" height="5" rx="2.5" opacity=".58"/>
<rect transform="rotate(40 316 729)" x="264" y="726.5" width="104" height="5" rx="2.5" opacity=".48"/>
<rect transform="rotate(40 648 437)" x="542" y="434.5" width="212" height="5" rx="2.5" opacity=".53"/>
<rect transform="rotate(40 756 772)" x="739" y="769.5" width="34" height="5" rx="2.5" opacity=".66"/>
<rect transform="rotate(40 634 710)" x="613.5" y="707.5" width="41" height="5" rx="2.5" opacity=".35"/>
<rect transform="rotate(40 186 237)" x="125" y="234.5" width="122" height="5" rx="2.5" opacity=".56"/>
<rect transform="rotate(40 466 197)" x="374" y="194.5" width="184" height="5" rx="2.5" opacity=".3"/>
<rect transform="rotate(40 157 201)" x="97" y="198.5" width="120" height="5" rx="2.5" opacity=".7"/>
<rect transform="rotate(40 47 161)" x="1" y="158.5" width="92" height="5" rx="2.5" opacity=".2"/>
<rect transform="rotate(40 746 115)" x="698" y="112.5" width="96" height="5" rx="2.5" opacity=".54"/>
<rect transform="rotate(40 658 283)" x="617.5" y="280.5" width="81" height="5" rx="2.5" opacity=".51"/>
<rect transform="rotate(40 619 13)" x="576" y="10.5" width="86" height="5" rx="2.5" opacity=".81"/>
<rect transform="rotate(40 277 24)" x="212" y="21.5" width="130" height="5" rx="2.5" opacity=".97"/>
<rect transform="rotate(40 780 674)" x="723.5" y="671.5" width="113" height="5" rx="2.5" opacity=".94"/>
<rect transform="rotate(40 166 540)" x="34.5" y="537.5" width="263" height="5" rx="2.5" opacity=".32"/>
<rect transform="rotate(40 25 743)" x="-68" y="740.5" width="186" height="5" rx="2.5" opacity=".52"/>
<rect transform="rotate(40 238 272)" x="156.5" y="269.5" width="163" height="5" rx="2.5" opacity=".84"/>
<rect transform="rotate(40 181 345)" x="116.5" y="342.5" width="129" height="5" rx="2.5" opacity=".11"/>
<rect transform="rotate(40 27 487)" x="-76.5" y="484.5" width="207" height="5" rx="2.5" opacity=".82"/>
<rect transform="rotate(40 476 607)" x="323.5" y="604.5" width="305" height="5" rx="2.5" opacity=".82"/>
<rect transform="rotate(40 350 312)" x="330" y="309.5" width="40" height="5" rx="2.5" opacity=".68"/>
<rect transform="rotate(40 17 75)" x="-3.5" y="72.5" width="41" height="5" rx="2.5" opacity=".21"/>
<rect transform="rotate(40 40 319)" x="-17" y="316.5" width="114" height="5" rx="2.5" opacity=".64"/>
<rect transform="rotate(40 639 42)" x="623.5" y="39.5" width="31" height="5" rx="2.5" opacity=".11"/>
<rect transform="rotate(40 627 119)" x="564.5" y="116.5" width="125" height="5" rx="2.5" opacity=".09"/>
<rect transform="rotate(40 670 512)" x="652.5" y="509.5" width="35" height="5" rx="2.5" opacity=".8"/>
<rect transform="rotate(40 509 421)" x="454.5" y="418.5" width="109" height="5" rx="2.5" opacity=".56"/>
<rect transform="rotate(40 35 24)" x="5.5" y="21.5" width="59" height="5" rx="2.5" opacity=".2"/>
<rect transform="rotate(40 494 273)" x="398" y="270.5" width="192" height="5" rx="2.5" opacity=".49"/>
<rect transform="rotate(40 772 379)" x="684.5" y="376.5" width="175" height="5" rx="2.5" opacity=".31"/>
<rect transform="rotate(40 61 553)" x="-5.5" y="550.5" width="133" height="5" rx="2.5" opacity=".21"/>
<rect transform="rotate(40 675 366)" x="640" y="363.5" width="70" height="5" rx="2.5" opacity=".42"/>
<rect transform="rotate(40 565 597)" x="462" y="594.5" width="206" height="5" rx="2.5" opacity=".89"/>
<rect transform="rotate(40 504 696)" x="402.5" y="693.5" width="203" height="5" rx="2.5" opacity=".2"/>
<rect transform="rotate(40 84 464)" x="39.5" y="461.5" width="89" height="5" rx="2.5" opacity=".08"/>
<rect transform="rotate(40 304 228)" x="177.5" y="225.5" width="253" height="5" rx="2.5" opacity=".78"/>
<rect transform="rotate(40 669 170)" x="585.5" y="167.5" width="167" height="5" rx="2.5" opacity=".63"/>
<rect transform="rotate(40 541 497)" x="487" y="494.5" width="108" height="5" rx="2.5" opacity=".93"/>
<rect transform="rotate(40 130 694)" x=".5" y="691.5" width="259" height="5" rx="2.5" opacity=".9"/>
<rect transform="rotate(40 614 775)" x="521" y="772.5" width="186" height="5" rx="2.5" opacity=".44"/>
<rect transform="rotate(40 195 108)" x="101" y="105.5" width="188" height="5" rx="2.5" opacity=".79"/>
<rect transform="rotate(40 528 213)" x="454.5" y="210.5" width="147" height="5" rx="2.5" opacity=".21"/>
<rect transform="rotate(40 428 18)" x="378" y="15.5" width="100" height="5" rx="2.5" opacity=".08"/>
<rect transform="rotate(40 769 439)" x="699" y="436.5" width="140" height="5" rx="2.5" opacity=".3"/>
<rect transform="rotate(40 296 612)" x="199.5" y="609.5" width="193" height="5" rx="2.5" opacity=".36"/>
<rect transform="rotate(40 15 140)" x="-5.5" y="137.5" width="41" height="5" rx="2.5" opacity=".5"/>
<rect transform="rotate(40 250 489)" x="208" y="486.5" width="84" height="5" rx="2.5" opacity=".69"/>
<rect transform="rotate(40 569 322)" x="473.5" y="319.5" width="191" height="5" rx="2.5" opacity=".66"/>
<rect transform="rotate(40 761 37)" x="739" y="34.5" width="44" height="5" rx="2.5" opacity=".79"/>
<rect transform="rotate(40 503 26)" x="412" y="23.5" width="182" height="5" rx="2.5" opacity=".41"/>
<rect transform="rotate(40 151 473)" x="115" y="470.5" width="72" height="5" rx="2.5" opacity=".09"/>
<rect transform="rotate(40 574 166)" x="471.5" y="163.5" width="205" height="5" rx="2.5" opacity=".07"/>
<rect transform="rotate(40 386 703)" x="334.5" y="700.5" width="103" height="5" rx="2.5" opacity=".93"/>
<rect transform="rotate(40 536 774)" x="503.5" y="771.5" width="65" height="5" rx="2.5" opacity=".1"/>
<rect transform="rotate(40 767 722)" x="732" y="719.5" width="70" height="5" rx="2.5" opacity=".85"/>
<rect transform="rotate(40 240 149)" x="186" y="146.5" width="108" height="5" rx="2.5" opacity=".94"/>
<rect transform="rotate(40 28 439)" x="-3" y="436.5" width="62" height="5" rx="2.5" opacity=".1"/>
<rect transform="rotate(40 12 360)" x="-12" y="357.5" width="48" height="5" rx="2.5" opacity=".1"/>
<rect transform="rotate(40 744 569)" x="677" y="566.5" width="134" height="5" rx="2.5" opacity=".53"/>
<rect transform="rotate(40 772 279)" x="736.5" y="276.5" width="71" height="5" rx="2.5" opacity=".63"/>
<rect transform="rotate(40 724 489)" x="641.5" y="486.5" width="165" height="5" rx="2.5" opacity=".21"/>
<rect transform="rotate(40 621 372)" x="522" y="369.5" width="198" height="5" rx="2.5" opacity=".73"/>
<rect transform="rotate(40 734 68)" x="694.5" y="65.5" width="79" height="5" rx="2.5" opacity=".24"/>
<rect transform="rotate(40 657 653)" x="601.5" y="650.5" width="111" height="5" rx="2.5" opacity=".75"/>
<rect transform="rotate(40 124 235)" x="54" y="232.5" width="140" height="5" rx="2.5" opacity=".27"/>
<rect transform="rotate(40 136 95)" x="60.5" y="92.5" width="151" height="5" rx="2.5" opacity=".12"/>
<rect transform="rotate(40 203 44)" x="113.5" y="41.5" width="179" height="5" rx="2.5" opacity=".83"/>
<rect transform="rotate(40 79 751)" x="-48" y="748.5" width="254" height="5" rx="2.5" opacity=".4"/>
<rect transform="rotate(40 785 20)" x="747.5" y="17.5" width="75" height="5" rx="2.5" opacity=".68"/>
<rect transform="rotate(40 56 94)" x="30.5" y="91.5" width="51" height="5" rx="2.5" opacity=".45"/>
<rect transform="rotate(40 443 143)" x="397.5" y="140.5" width="91" height="5" rx="2.5" opacity=".37"/>
<rect transform="rotate(40 751 320)" x="719.5" y="317.5" width="63" height="5" rx="2.5" opacity=".38"/>
<rect transform="rotate(40 579 734)" x="509" y="731.5" width="140" height="5" rx="2.5" opacity=".22"/>
<rect transform="rotate(40 709 421)" x="626" y="418.5" width="166" height="5" rx="2.5" opacity=".51"/>
<rect transform="rotate(40 444 309)" x="395" y="306.5" width="98" height="5" rx="2.5" opacity=".64"/>
<rect transform="rotate(40 243 552)" x="226.5" y="549.5" width="33" height="5" rx="2.5" opacity=".54"/>
<rect transform="rotate(40 633 316)" x="595.5" y="313.5" width="75" height="5" rx="2.5" opacity=".76"/>
<rect transform="rotate(40 751 222)" x="721.5" y="219.5" width="59" height="5" rx="2.5" opacity=".74"/>
<rect transform="rotate(40 367 42)" x="312.5" y="39.5" width="109" height="5" rx="2.5" opacity=".12"/>
<rect transform="rotate(40 551 56)" x="467" y="53.5" width="168" height="5" rx="2.5" opacity=".91"/>
<rect transform="rotate(40 155 770)" x="37" y="767.5" width="236" height="5" rx="2.5" opacity=".84"/>
<rect transform="rotate(40 171 417)" x="147" y="414.5" width="48" height="5" rx="2.5" opacity=".72"/>
<rect transform="rotate(40 533 111)" x="437" y="108.5" width="192" height="5" rx="2.5" opacity=".25"/>
<rect transform="rotate(40 169 634)" x="106" y="631.5" width="126" height="5" rx="2.5" opacity=".48"/>
<rect transform="rotate(40 715 345)" x="634.5" y="342.5" width="161" height="5" rx="2.5" opacity=".89"/>
<rect transform="rotate(40 288 126)" x="268" y="123.5" width="40" height="5" rx="2.5" opacity=".93"/>
<rect transform="rotate(40 454 750)" x="427.5" y="747.5" width="53" height="5" rx="2.5" opacity=".1"/>
<rect transform="rotate(40 97 518)" x="17" y="515.5" width="160" height="5" rx="2.5" opacity=".56"/>
<rect transform="rotate(40 481 93)" x="428.5" y="90.5" width="105" height="5" rx="2.5" opacity=".47"/>
<rect transform="rotate(40 160 284)" x="81.5" y="281.5" width="157" height="5" rx="2.5" opacity=".27"/>
<rect transform="rotate(40 356 389)" x="256.5" y="386.5" width="199" height="5" rx="2.5" opacity=".36"/>
<rect transform="rotate(40 466 474)" x="443" y="471.5" width="46" height="5" rx="2.5" opacity=".57"/>
<rect transform="rotate(40 266 692)" x="158" y="689.5" width="216" height="5" rx="2.5" opacity=".58"/>
<rect transform="rotate(40 340 116)" x="284.5" y="113.5" width="111" height="5" rx="2.5" opacity=".08"/>
<rect transform="rotate(40 362 568)" x="296.5" y="565.5" width="131" height="5" rx="2.5" opacity=".81"/>
<rect transform="rotate(40 19 557)" x="-51.5" y="554.5" width="141" height="5" rx="2.5" opacity=".62"/>
<rect transform="rotate(40 257 199)" x="195" y="196.5" width="124" height="5" rx="2.5" opacity=".66"/>
<rect transform="rotate(40 97 372)" x="75" y="369.5" width="44" height="5" rx="2.5" opacity=".69"/>
<rect transform="rotate(40 71 208)" x="-31" y="205.5" width="204" height="5" rx="2.5" opacity=".12"/>
<rect transform="rotate(40 325 173)" x="282" y="170.5" width="86" height="5" rx="2.5" opacity=".78"/>
<rect transform="rotate(40 768 621)" x="699" y="618.5" width="138" height="5" rx="2.5" opacity=".81"/>
<rect transform="rotate(40 91 417)" x="34.5" y="414.5" width="113" height="5" rx="2.5" opacity=".15"/>
<rect transform="rotate(40 262 337)" x="236" y="334.5" width="52" height="5" rx="2.5" opacity=".89"/>
<rect transform="rotate(40 255 774)" x="236.5" y="771.5" width="37" height="5" rx="2.5" opacity=".14"/>
<rect transform="rotate(40 590 245)" x="531" y="242.5" width="118" height="5" rx="2.5" opacity=".18"/>
</g>
</svg>
