<?xml version="1.0" encoding="UTF-8"?>
<svg version="1.1" viewBox="0 0 800 800" xmlns="http://www.w3.org/2000/svg">
<rect width="100%" height="100%" fill="hsl(0, 0%, 0%)"/>
<g fill="hsl(0, 0%, 100%)">
<rect transform="rotate(48 359 463)" x="332" y="462" width="54" height="2" rx="1" opacity=".36"/>
<rect transform="rotate(48 37 411)" x="-130" y="410" width="334" height="2" rx="1" opacity=".41"/>
<rect transform="rotate(48 282 506)" x="211" y="505" width="142" height="2" rx="1" opacity=".4"/>
<rect transform="rotate(48 479 773)" x="463.5" y="772" width="31" height="2" rx="1" opacity=".97"/>
<rect transform="rotate(48 391 770)" x="312.5" y="769" width="157" height="2" rx="1" opacity=".4"/>
<rect transform="rotate(48 224 312)" x="12.5" y="311" width="423" height="2" rx="1" opacity=".26"/>
<rect transform="rotate(48 738 50)" x="710.5" y="49" width="55" height="2" rx="1" opacity=".79"/>
<rect transform="rotate(48 241 628)" x="158" y="627" width="166" height="2" rx="1" opacity=".36"/>
<rect transform="rotate(48 669 482)" x="461.5" y="481" width="415" height="2" rx="1" opacity=".16"/>
<rect transform="rotate(48 112 109)" x="50.5" y="108" width="123" height="2" rx="1" opacity=".51"/>
<rect transform="rotate(48 305 141)" x="199.5" y="140" width="211" height="2" rx="1" opacity=".98"/>
<rect transform="rotate(48 191 94)" x="32.5" y="93" width="317" height="2" rx="1" opacity=".14"/>
<rect transform="rotate(48 52 763)" x="-107.5" y="762" width="319" height="2" rx="1" opacity=".14"/>
<rect transform="rotate(48 636 334)" x="585" y="333" width="102" height="2" rx="1" opacity=".62"/>
<rect transform="rotate(48 483 611)" x="457.5" y="610" width="51" height="2" rx="1" opacity=".89"/>
<rect transform="rotate(48 430 635)" x="370" y="634" width="120" height="2" rx="1" opacity=".26"/>
<rect transform="rotate(48 36 147)" x="-140.5" y="146" width="353" height="2" rx="1" opacity=".81"/>
<rect transform="rotate(48 565 734)" x="505" y="733" width="120" height="2" rx="1" opacity=".33"/>
<rect transform="rotate(48 257 735)" x="42" y="734" width="430" height="2" rx="1" opacity=".59"/>
<rect transform="rotate(48 262 205)" x="112" y="204" width="300" height="2" rx="1" opacity=".64"/>
<rect transform="rotate(48 22 66)" x="-4" y="65" width="52" height="2" rx="1" opacity=".79"/>
<rect transform="rotate(48 772 228)" x="703" y="227" width="138" height="2" rx="1" opacity=".83"/>
<rect transform="rotate(48 58 34)" x="-174.5" y="33" width="465" height="2" rx="1" opacity=".23"/>
<rect transform="rotate(48 630 150)" x="409" y="149" width="442" height="2" rx="1" opacity=".61"/>
<rect transform="rotate(48 763 297)" x="503" y="296" width="520" height="2" rx="1" opacity=".98"/>
<rect transform="rotate(48 704 731)" x="625" y="730" width="158" height="2" rx="1" opacity=".89"/>
<rect transform="rotate(48 692 665)" x="495.5" y="664" width="393" height="2" rx="1" opacity=".46"/>
<rect transform="rotate(48 638 416)" x="425.5" y="415" width="425" height="2" rx="1" opacity=".71"/>
<rect transform="rotate(48 88 201)" x="-28.5" y="200" width="233" height="2" rx="1" opacity=".89"/>
<rect transform="rotate(48 591 570)" x="323" y="569" width="536" height="2" rx="1" opacity=".52"/>
<rect transform="rotate(48 671 577)" x="594.5" y="576" width="153" height="2" rx="1" opacity=".31"/>
<rect transform="rotate(48 170 558)" x="-113.5" y="557" width="567" height="2" rx="1" opacity=".14"/>
<rect transform="rotate(48 148 645)" x="58.5" y="644" width="179" height="2" rx="1" opacity=".15"/>
<rect transform="rotate(48 28 252)" x="-58" y="251" width="172" height="2" rx="1" opacity=".82"/>
<rect transform="rotate(48 320 343)" x="108.5" y="342" width="423" height="2" rx="1" opacity=".87"/>
<rect transform="rotate(48 773 754)" x="684" y="753" width="178" height="2" rx="1" opacity=".33"/>
<rect transform="rotate(48 559 384)" x="520.5" y="383" width="77" height="2" rx="1" opacity=".57"/>
<rect transform="rotate(48 415 241)" x="171.5" y="240" width="487" height="2" rx="1" opacity=".1"/>
<rect transform="rotate(48 431 53)" x="271" y="52" width="320" height="2" rx="1" opacity=".22"/>
<rect transform="rotate(48 769 700)" x="584" y="699" width="370" height="2" rx="1" opacity=".08"/>
<rect transform="rotate(48 34 579)" x="-217.5" y="578" width="503" height="2" rx="1" opacity=".43"/>
<rect transform="rotate(48 749 387)" x="509" y="386" width="480" height="2" rx="1" opacity=".99"/>
<rect transform="rotate(48 479 381)" x="363.5" y="380" width="231" height="2" rx="1" opacity=".22"/>
<rect transform="rotate(48 261 450)" x="89" y="449" width="344" height="2" rx="1" opacity=".42"/>
<rect transform="rotate(48 107 294)" x="-59.5" y="293" width="333" height="2" rx="1" opacity=".77"/>
<rect transform="rotate(48 523 39)" x="314" y="38" width="418" height="2" rx="1" opacity=".82"/>
<rect transform="rotate(48 355 700)" x="261.5" y="699" width="187" height="2" rx="1" opacity=".65"/>
<rect transform="rotate(48 489 541)" x="437" y="540" width="104" height="2" rx="1" opacity=".65"/>
<rect transform="rotate(48 551 480)" x="233.5" y="479" width="635" height="2" rx="1" opacity=".28"/>
<rect transform="rotate(48 195 25)" x="108" y="24" width="174" height="2" rx="1" opacity=".89"/>
<rect transform="rotate(48 561 671)" x="464" y="670" width="194" height="2" rx="1" opacity=".99"/>
<rect transform="rotate(48 413 330)" x="327" y="329" width="172" height="2" rx="1" opacity=".45"/>
<rect transform="rotate(48 756 492)" x="568" y="491" width="376" height="2" rx="1" opacity=".87"/>
<rect transform="rotate(48 506 202)" x="265.5" y="201" width="481" height="2" rx="1" opacity=".91"/>
<rect transform="rotate(48 760 644)" x="603.5" y="643" width="313" height="2" rx="1" opacity=".37"/>
<rect transform="rotate(48 96 545)" x="-96" y="544" width="384" height="2" rx="1" opacity=".16"/>
<rect transform="rotate(48 206 395)" x="182.5" y="394" width="47" height="2" rx="1" opacity=".07"/>
<rect transform="rotate(48 629 48)" x="565" y="47" width="128" height="2" rx="1" opacity=".92"/>
<rect transform="rotate(48 436 772)" x="417" y="771" width="38" height="2" rx="1" opacity=".72"/>
<rect transform="rotate(48 57 681)" x="-63" y="680" width="240" height="2" rx="1" opacity=".53"/>
<rect transform="rotate(48 648 234)" x="587.5" y="233" width="121" height="2" rx="1" opacity=".41"/>
<rect transform="rotate(48 345 54)" x="92.5" y="53" width="505" height="2" rx="1" opacity=".43"/>
<rect transform="rotate(48 258 555)" x="65" y="554" width="386" height="2" rx="1" opacity=".9"/>
<rect transform="rotate(48 330 767)" x="225.5" y="766" width="209" height="2" rx="1" opacity=".47"/>
<rect transform="rotate(48 531 123)" x="428.5" y="122" width="205" height="2" rx="1" opacity=".97"/>
<rect transform="rotate(48 168 472)" x="85.5" y="471" width="165" height="2" rx="1" opacity=".47"/>
<rect transform="rotate(48 497 671)" x="418" y="670" width="158" height="2" rx="1" opacity=".42"/>
<rect transform="rotate(48 405 149)" x="298" y="148" width="214" height="2" rx="1" opacity=".56"/>
<rect transform="rotate(48 62 321)" x="12.5" y="320" width="99" height="2" rx="1" opacity=".54"/>
<rect transform="rotate(48 758 131)" x="630" y="130" width="256" height="2" rx="1" opacity=".25"/>
<rect transform="rotate(48 721 189)" x="587" y="188" width="268" height="2" rx="1" opacity=".09"/>
<rect transform="rotate(48 60 472)" x="-182" y="471" width="484" height="2" rx="1" opacity=".17"/>
<rect transform="rotate(48 414 714)" x="236" y="713" width="356" height="2" rx="1" opacity=".15"/>
<rect transform="rotate(48 187 178)" x="135.5" y="177" width="103" height="2" rx="1" opacity=".7"/>
<rect transform="rotate(48 639 761)" x="471.5" y="760" width="335" height="2" rx="1" opacity=".11"/>
<rect transform="rotate(48 538 608)" x="420" y="607" width="236" height="2" rx="1" opacity=".5"/>
<rect transform="rotate(48 305 642)" x="200" y="641" width="210" height="2" rx="1" opacity=".67"/>
<rect transform="rotate(48 161 259)" x="-63.5" y="258" width="449" height="2" rx="1" opacity=".43"/>
<rect transform="rotate(48 365 629)" x="250" y="628" width="230" height="2" rx="1" opacity=".1"/>
<rect transform="rotate(48 265 50)" x="63.5" y="49" width="403" height="2" rx="1" opacity=".91"/>
<rect transform="rotate(48 385 552)" x="151.5" y="551" width="467" height="2" rx="1" opacity=".14"/>
<rect transform="rotate(48 625 666)" x="591.5" y="665" width="67" height="2" rx="1" opacity=".79"/>
<rect transform="rotate(48 696 300)" x="491" y="299" width="410" height="2" rx="1" opacity=".97"/>
<rect transform="rotate(48 735 783)" x="669.5" y="782" width="131" height="2" rx="1" opacity=".14"/>
<rect transform="rotate(48 123 30)" x="-68" y="29" width="382" height="2" rx="1" opacity=".51"/>
<rect transform="rotate(48 124 379)" x="60.5" y="378" width="127" height="2" rx="1" opacity=".16"/>
<rect transform="rotate(48 317 259)" x="89" y="258" width="456" height="2" rx="1" opacity=".18"/>
<rect transform="rotate(48 437 456)" x="133.5" y="455" width="607" height="2" rx="1" opacity=".38"/>
<rect transform="rotate(48 536 774)" x="499.5" y="773" width="73" height="2" rx="1" opacity=".71"/>
<rect transform="rotate(48 473 715)" x="297.5" y="714" width="351" height="2" rx="1" opacity=".25"/>
<rect transform="rotate(48 758 579)" x="552.5" y="578" width="411" height="2" rx="1" opacity=".9"/>
<rect transform="rotate(48 25 347)" x="-20.5" y="346" width="91" height="2" rx="1" opacity=".63"/>
<rect transform="rotate(48 544 283)" x="267.5" y="282" width="553" height="2" rx="1" opacity=".35"/>
<rect transform="rotate(48 164 749)" x="40.5" y="748" width="247" height="2" rx="1" opacity=".38"/>
<rect transform="rotate(48 307 404)" x="200.5" y="403" width="213" height="2" rx="1" opacity=".74"/>
</g>
</svg>
